<svg width="42" height="42" viewBox="0 0 42 42" fill="none" xmlns="http://www.w3.org/2000/svg">
<path opacity="0.997" fill-rule="evenodd" clip-rule="evenodd" d="M19.6055 0C20.5351 0 21.4649 0 22.3945 0C27.2123 0.811446 30.4525 3.51848 32.1152 8.12109C32.8822 10.7509 32.7866 13.3485 31.8281 15.9141C30.7168 18.3929 28.9942 20.3342 26.6601 21.7383C23.8672 23.1804 20.9414 23.5221 17.8828 22.7637C17.0009 22.4928 16.1533 22.1511 15.3398 21.7383C13.0058 20.3342 11.2831 18.3929 10.1719 15.9141C8.49498 10.9394 9.50667 6.60547 13.207 2.91211C15.0553 1.3162 17.1881 0.345496 19.6055 0Z" fill="#00D23D"/>
<path fill-rule="evenodd" clip-rule="evenodd" d="M22.3946 5.49611C22.3946 7.0547 22.3946 8.6133 22.3946 10.1719C23.9258 10.1719 25.457 10.1719 26.9883 10.1719C28.0758 10.4555 28.445 11.139 28.0957 12.2227C27.881 12.6013 27.5666 12.8611 27.1524 13.002C25.594 13.043 24.0354 13.0567 22.4766 13.043C22.5136 14.6607 22.4726 16.274 22.3536 17.8828C21.8526 18.788 21.128 19.0204 20.1797 18.5801C19.8752 18.3674 19.6839 18.0803 19.6055 17.7188C19.5255 16.1625 19.4981 14.6039 19.5235 13.043C17.8774 13.081 16.2367 13.04 14.6016 12.9199C13.896 12.4995 13.6362 11.8843 13.8223 11.0742C14.0344 10.5745 14.4036 10.2737 14.9297 10.1719C16.4883 10.1719 18.0469 10.1719 19.6055 10.1719C19.6055 8.6133 19.6055 7.0547 19.6055 5.49611C19.8775 4.61153 20.4791 4.24239 21.4102 4.38869C21.9594 4.56839 22.2875 4.93753 22.3946 5.49611Z" fill="white"/>
<path fill-rule="evenodd" clip-rule="evenodd" d="M19.6055 5.49609C19.6055 7.05469 19.6055 8.61328 19.6055 10.1719C18.0469 10.1719 16.4883 10.1719 14.9297 10.1719C16.4467 10.0901 17.9779 10.0628 19.5234 10.0898C19.4964 8.54429 19.5237 7.01306 19.6055 5.49609Z" fill="#9AD4AD"/>
<path fill-rule="evenodd" clip-rule="evenodd" d="M22.3945 5.49609C22.4763 7.01306 22.5036 8.54429 22.4766 10.0898C23.9948 10.0628 25.4987 10.0901 26.9883 10.1719C25.457 10.1719 23.9258 10.1719 22.3945 10.1719C22.3945 8.61328 22.3945 7.05469 22.3945 5.49609Z" fill="#9AD4AD"/>
<path opacity="0.996" fill-rule="evenodd" clip-rule="evenodd" d="M10.1719 15.914C11.2832 18.3928 13.0058 20.3341 15.3398 21.7382C10.9375 21.7382 6.53516 21.7382 2.13281 21.7382C1.15557 21.9326 0.44463 21.6045 0 20.7538C0 19.4686 0 18.1835 0 16.8983C0.174265 16.4371 0.50239 16.1227 0.984375 15.955C4.04675 15.914 7.10925 15.9003 10.1719 15.914Z" fill="#EFC319"/>
<path opacity="0.996" fill-rule="evenodd" clip-rule="evenodd" d="M31.8281 15.914C34.8908 15.9003 37.9532 15.914 41.0156 15.955C41.4976 16.1227 41.8258 16.4371 42 16.8983C42 18.1835 42 19.4686 42 20.7538C41.5554 21.6045 40.8444 21.9326 39.8672 21.7382C35.4648 21.7382 31.0625 21.7382 26.6602 21.7382C28.9942 20.3341 30.7168 18.3928 31.8281 15.914Z" fill="#EFC319"/>
<path fill-rule="evenodd" clip-rule="evenodd" d="M4.01956 18.1289C4.71316 18.0436 5.05496 18.3444 5.04496 19.0312C4.84392 19.4897 4.50212 19.64 4.01956 19.4824C3.47557 19.0249 3.47557 18.5737 4.01956 18.1289Z" fill="#F19D1E"/>
<path fill-rule="evenodd" clip-rule="evenodd" d="M8.36714 18.1289C9.06482 18.0481 9.40656 18.3488 9.39253 19.0313C9.19147 19.4898 8.84973 19.6401 8.36714 19.4825C7.8244 19.0356 7.8244 18.5844 8.36714 18.1289Z" fill="#F19C1E"/>
<path fill-rule="evenodd" clip-rule="evenodd" d="M32.9766 18.1289C33.6739 18.0477 34.0157 18.3485 34.0019 19.0313C33.8049 19.49 33.4631 19.6403 32.9766 19.4824C32.4351 19.0316 32.4351 18.5804 32.9766 18.1289Z" fill="#F19D1E"/>
<path fill-rule="evenodd" clip-rule="evenodd" d="M37.3242 18.1289C38.0178 18.0436 38.3596 18.3444 38.3496 19.0312C38.1485 19.4897 37.8068 19.64 37.3242 19.4824C36.7827 19.0315 36.7827 18.5804 37.3242 18.1289Z" fill="#F19C1E"/>
<path opacity="0.999" fill-rule="evenodd" clip-rule="evenodd" d="M2.13281 21.7383C6.53516 21.7383 10.9375 21.7383 15.3398 21.7383C16.1533 22.1511 17.0009 22.4928 17.8828 22.7637C20.9414 23.5221 23.8672 23.1804 26.6602 21.7383C31.0625 21.7383 35.4648 21.7383 39.8672 21.7383C38.8323 27.6193 37.7796 33.4982 36.709 39.375C36.2558 40.7443 35.3398 41.6194 33.9609 42C25.3203 42 16.6797 42 8.03906 42C6.66017 41.6194 5.74416 40.7443 5.29102 39.375C4.22042 33.4982 3.16769 27.6193 2.13281 21.7383Z" fill="#F19B1F"/>
<path fill-rule="evenodd" clip-rule="evenodd" d="M11.8946 25.3476C12.8217 25.2432 13.4369 25.626 13.7403 26.496C13.795 30.0507 13.795 33.6054 13.7403 37.1601C13.4719 38.0833 12.8567 38.4798 11.8946 38.3496C11.3197 38.1573 10.9779 37.7608 10.8692 37.1601C10.8144 33.6054 10.8144 30.0507 10.8692 26.496C11.0272 25.9419 11.369 25.5591 11.8946 25.3476Z" fill="#D25726"/>
<path fill-rule="evenodd" clip-rule="evenodd" d="M20.5899 25.3476C21.517 25.2432 22.1322 25.626 22.4356 26.496C22.4903 30.0781 22.4903 33.6601 22.4356 37.2421C22.1322 38.118 21.517 38.4871 20.5899 38.3495C20.0487 38.1639 19.7069 37.7948 19.5645 37.2421C19.5098 33.6601 19.5098 30.0781 19.5645 26.496C19.7225 25.9419 20.0643 25.5591 20.5899 25.3476Z" fill="#D25726"/>
<path fill-rule="evenodd" clip-rule="evenodd" d="M29.2852 25.3476C30.2123 25.2432 30.8275 25.626 31.1309 26.496C31.1856 30.0781 31.1856 33.6601 31.1309 37.2421C30.8256 38.1208 30.2103 38.4899 29.2852 38.3496C28.708 38.1552 28.3662 37.7588 28.2598 37.1601C28.2051 33.578 28.2051 29.9961 28.2598 26.414C28.4528 25.9066 28.7946 25.5512 29.2852 25.3476Z" fill="#D25726"/>
</svg>
