 <svg version="1.0" xmlns="http://www.w3.org/2000/svg" width="700.000000pt" height="700.000000pt" viewBox="0 0 700.000000 700.000000" preserveAspectRatio="xMidYMid meet">
<metadata>
Created by potrace 1.12, written by Peter Selinger 2001-2015
</metadata>
<g transform="translate(0.000000,700.000000) scale(0.100000,-0.100000)" fill="#000000" stroke="none">
<path d="M5160 5891 c-838 -133 -1424 -869 -1360 -1707 30 -390 187 -731 465
-1009 170 -170 347 -286 559 -365 616 -233 1279 -81 1734 395 225 235 368 523
422 850 19 109 21 156 17 290 -10 324 -93 585 -275 860 -84 128 -289 335 -417
422 -182 123 -404 215 -610 254 -150 29 -391 33 -535 10z m325 -915 c105 -49
125 -95 125 -285 0 -77 3 -146 6 -155 5 -14 29 -16 157 -16 132 0 156 -3 194
-21 162 -78 162 -310 0 -388 -38 -18 -62 -21 -195 -21 -179 0 -160 22 -164
-192 -3 -145 -3 -147 -33 -190 -34 -48 -119 -98 -169 -98 -54 0 -106 20 -147
57 -68 62 -73 79 -79 258 l-5 160 -160 5 c-179 6 -196 11 -257 78 -92 102 -54
280 72 335 14 6 97 14 185 17 l160 5 5 160 c5 152 6 162 32 207 58 97 171 132
273 84z"></path>
<path d="M124 5310 c-166 -82 -165 -304 1 -393 38 -21 56 -22 364 -27 l325 -5
12 -45 c209 -798 227 -866 279 -1065 49 -191 305 -1177 367 -1415 22 -85 47
-172 55 -192 20 -51 95 -116 142 -123 78 -13 83 -15 76 -33 -41 -98 -51 -279
-22 -392 10 -36 36 -103 58 -150 34 -70 58 -101 133 -175 105 -104 189 -152
328 -185 154 -37 312 -18 466 57 99 48 231 175 288 278 93 168 111 371 50 563
l-7 22 256 0 256 0 -7 -22 c-41 -128 -46 -278 -14 -402 31 -123 82 -208 185
-311 130 -130 256 -187 441 -202 296 -22 590 173 690 458 49 142 53 314 9 438
l-14 40 37 6 c70 12 98 25 135 63 37 38 74 112 79 159 3 30 15 25 -152 63
-548 125 -1025 479 -1313 975 -183 316 -272 670 -265 1055 l3 175 -1001 3
-1002 2 -6 23 c-3 12 -27 101 -52 197 -128 495 -136 515 -227 559 -42 20 -58
21 -478 21 -416 0 -436 -1 -475 -20z m2363 -3295 c97 -41 155 -126 156 -229 0
-106 -51 -186 -148 -232 -99 -47 -214 -20 -288 67 -141 164 -30 407 186 409
32 0 74 -7 94 -15z m1821 -11 c160 -79 187 -286 54 -406 -161 -146 -412 -35
-412 182 0 104 46 181 132 224 72 36 154 36 226 0z"></path>
</g>
</svg>