<svg width="42" height="42" viewBox="0 0 42 42" fill="none" xmlns="http://www.w3.org/2000/svg">
<path d="M39.0522 20.7286C39.0522 30.7406 30.9357 38.8662 20.9147 38.8662C10.8937 38.8662 2.7771 30.7406 2.7771 20.7286C2.7771 10.7076 10.8937 2.59107 20.9147 2.59107C30.9357 2.59107 39.0522 10.7076 39.0522 20.7286Z" fill="#283544"/>
<path d="M29.4162 16.1391C29.3172 16.1968 26.9611 17.4153 26.9611 20.117C27.0722 23.1981 29.9344 24.2786 29.9835 24.2786C29.9344 24.3363 29.5514 25.7505 28.4168 27.233C27.5163 28.5099 26.5169 29.7974 24.9993 29.7974C23.5557 29.7974 23.0375 28.9464 21.3718 28.9464C19.583 28.9464 19.0768 29.7974 17.7072 29.7974C16.1896 29.7974 15.1161 28.441 14.1666 27.176C12.933 25.5203 11.8845 22.9221 11.8475 20.4274C11.8226 19.1054 12.0945 17.806 12.785 16.7022C13.7594 15.1613 15.4992 14.1152 17.399 14.0807C18.8547 14.035 20.1503 15.012 21.0386 15.012C21.89 15.012 23.4817 14.0807 25.2825 14.0807C26.0599 14.0815 28.1327 14.2997 29.4162 16.1391ZM20.9155 13.8168C20.6564 12.6095 21.3718 11.4023 22.038 10.6322C22.8894 9.7009 24.234 9.06879 25.3936 9.06879C25.4676 10.276 24.9985 11.46 24.16 12.3224C23.4076 13.2537 22.1121 13.9548 20.9155 13.8168Z" fill="white"/>
</svg>
