<svg width="31" height="11" viewBox="0 0 31 11" fill="none" xmlns="http://www.w3.org/2000/svg">
<path d="M21.9531 0.468751C21.7494 0.603419 21.6351 0.785587 21.6351 0.97547C21.6351 1.16535 21.7494 1.34752 21.9531 1.48219L26.9844 4.78125L1.22657 4.78125C0.936491 4.78125 0.658291 4.85698 0.453172 4.99177C0.248054 5.12656 0.132822 5.30938 0.132822 5.5C0.132822 5.69063 0.248054 5.87344 0.453172 6.00823C0.658291 6.14303 0.936491 6.21875 1.22657 6.21875L26.9516 6.21875L21.9531 9.50344C21.7457 9.63878 21.6286 9.82273 21.6276 10.0148C21.6266 10.2069 21.7417 10.3914 21.9477 10.5277C22.1536 10.664 22.4335 10.7409 22.7258 10.7416C23.0181 10.7423 23.2988 10.6666 23.5063 10.5313L30.4625 5.95281C30.6462 5.83158 30.7493 5.66748 30.7493 5.49641C30.7493 5.32534 30.6462 5.16123 30.4625 5.04L23.5063 0.468751C23.4046 0.401385 23.2836 0.347913 23.1503 0.311424C23.017 0.274933 22.8741 0.256146 22.7297 0.256146C22.5853 0.256146 22.4423 0.274933 22.3091 0.311424C22.1758 0.347913 22.0548 0.401385 21.9531 0.468751Z" fill="white"/>
</svg>
