<svg width="18" height="18" viewBox="0 0 18 18" fill="none" xmlns="http://www.w3.org/2000/svg">
<path fill-rule="evenodd" clip-rule="evenodd" d="M13.927 11.8234C14.4089 11.8225 14.8757 11.6516 15.2476 11.3398C15.6196 11.0281 15.8738 10.5947 15.9669 10.1135L17.012 4.79689C17.0725 4.48874 17.0652 4.17075 16.9905 3.86583C16.9158 3.5609 16.7757 3.27663 16.5801 3.03341C16.3845 2.79019 16.1384 2.59404 15.8595 2.45917C15.5805 2.3243 15.2756 2.25403 14.9668 2.25337H4.56212V1.19004C4.56212 0.908027 4.452 0.63758 4.25601 0.438167C4.06002 0.238754 3.79422 0.126709 3.51705 0.126709H1.43633C1.15916 0.126709 0.893327 0.238754 0.697339 0.438167C0.501351 0.63758 0.391263 0.908027 0.391263 1.19004C0.391263 1.47205 0.501351 1.7425 0.697339 1.94191C0.893327 2.14133 1.15916 2.25337 1.43633 2.25337H2.4814V12.8867C2.06761 12.8848 1.66258 13.0079 1.31762 13.2405C0.972668 13.473 0.703288 13.8044 0.543647 14.1929C0.384007 14.5813 0.341277 15.0092 0.420859 15.4223C0.500442 15.8355 0.698757 16.2153 0.99069 16.5137C1.28262 16.8121 1.65503 17.0156 2.06073 17.0984C2.46643 17.1812 2.88719 17.1397 3.26966 16.9791C3.65213 16.8184 3.97911 16.5458 4.20919 16.1958C4.43928 15.8459 4.56212 15.4344 4.56212 15.0133H11.8452C11.8468 15.4319 11.9703 15.8406 12.2001 16.1878C12.4298 16.535 12.7555 16.8052 13.1361 16.9642C13.5166 17.1232 13.9349 17.164 14.3382 17.0813C14.7415 16.9986 15.1116 16.7961 15.4019 16.4996C15.6922 16.203 15.8897 15.8256 15.9693 15.4149C16.049 15.0043 16.0072 14.5788 15.8494 14.1923C15.6916 13.8057 15.4248 13.4754 15.0827 13.2431C14.7405 13.0107 14.3383 12.8867 13.927 12.8867H4.56212V11.8234H13.927ZM14.972 4.38003L13.927 9.69669H4.56212V4.38003H14.9668H14.972Z" fill="#66B032"/>
</svg>
