<svg width="132" height="109" viewBox="0 0 132 109" fill="none" xmlns="http://www.w3.org/2000/svg">
<path opacity="0.938" fill-rule="evenodd" clip-rule="evenodd" d="M41.9277 0.990243C52.993 0.450029 59.191 5.52931 60.5215 16.2285C60.1725 21.2328 58.0698 25.3394 54.2129 28.5488C60.0224 31.8471 63.6748 36.7104 65.1699 43.1387C65.6125 43.5709 66.0555 43.5709 66.498 43.1387C67.9636 36.7107 71.616 31.8474 77.4551 28.5488C71.9952 23.955 70.169 18.2273 71.9766 11.3652C75.268 3.67672 81.1891 0.272487 89.7402 1.15235C96.0087 2.41019 100.048 6.03055 101.859 12.0137C103.392 18.6021 101.566 24.1138 96.3809 28.5488C102.354 31.9402 106.006 36.9656 107.338 43.625C114.469 43.674 119.505 46.8623 122.445 53.1895C124.862 60.4526 123.036 66.4507 116.967 71.1836C123.524 74.6317 127.342 79.9813 128.422 87.2324C129.307 92.8521 130.193 98.4721 131.078 104.092C131.3 105.281 131.3 106.469 131.078 107.658C130.802 107.928 130.525 108.199 130.248 108.469C87.3055 108.685 44.3625 108.685 1.41992 108.469C1.14324 108.199 0.866525 107.928 0.589844 107.658C1.26446 99.2729 2.48192 90.9515 4.24219 82.6934C6.08891 77.4319 9.57524 73.5955 14.7012 71.1836C8.63224 66.4507 6.80607 60.4526 9.22266 53.1895C12.2286 46.7472 17.375 43.505 24.6621 43.4629C25.7173 36.8109 29.2591 31.8397 35.2871 28.5488C28.5382 22.2272 27.4867 15.0944 32.1328 7.1504C34.6675 3.96981 37.9324 1.91634 41.9277 0.990243ZM42.5918 5.85352C49.6724 5.36752 53.9333 8.50174 55.375 15.2559C54.7949 23.4962 50.3125 27.1164 41.9277 26.1172C36.2537 23.9547 33.7634 19.9019 34.457 13.959C35.6769 9.79602 38.3886 7.09431 42.5918 5.85352ZM84.7598 5.85352C91.0996 5.40416 95.25 8.10587 97.2109 13.959C97.9368 20.5964 95.0036 24.7571 88.4121 26.4414C81.7263 26.6632 77.6865 23.5831 76.293 17.2012C76.2438 11.3614 79.0661 7.57869 84.7598 5.85352ZM42.2598 31.4668C51.7891 30.9435 57.7656 35.1584 60.1895 44.1113C60.0789 44.3276 59.968 44.5435 59.8574 44.7598C52.73 48.0334 49.6312 53.4913 50.5605 61.1328C46.7993 61.2949 43.0361 61.3491 39.2715 61.2949C39.993 53.3626 36.6727 47.7429 29.3105 44.4356C30.9631 37.5268 35.2795 33.204 42.2598 31.4668ZM84.4277 31.4668C94.0082 31.0628 99.9847 35.3856 102.357 44.4356C94.9953 47.7429 91.675 53.3626 92.3965 61.2949C88.6319 61.3491 84.8687 61.2949 81.1074 61.1328C82.0368 53.4913 78.9379 48.0334 71.8105 44.7598C72.2332 39.9558 74.5574 36.2273 78.7832 33.5742C80.616 32.6372 82.4973 31.9347 84.4277 31.4668ZM23.002 48.3262C28.8015 48.534 32.509 51.344 34.125 56.7559C34.7874 62.809 32.1863 66.8618 26.3223 68.9141C20.5137 69.8342 16.3633 67.7268 13.8711 62.5918C12.1237 54.8673 15.1673 50.112 23.002 48.3262ZM65.1699 48.3262C73.5982 49.257 77.1951 53.7961 75.9609 61.9434C72.6473 68.881 67.3902 70.7722 60.1895 67.6172C54.7292 63.4163 53.7886 58.3909 57.3672 52.541C59.4958 50.2332 62.0966 48.8284 65.1699 48.3262ZM107.006 48.3262C113.841 48.6245 117.715 52.0829 118.627 58.7012C118.119 63.8942 115.352 67.2985 110.326 68.9141C103.776 69.7431 99.5146 67.0955 97.543 60.9707C96.9466 54.0464 100.101 49.8315 107.006 48.3262ZM37.2793 66.1582C42.2611 66.1041 47.2416 66.1582 52.2207 66.3203C53.431 68.1492 54.8696 69.7703 56.5371 71.1836C49.1869 75.426 45.258 81.7483 44.75 90.1504C44.4093 81.6413 40.4801 75.319 32.9629 71.1836C34.9597 69.9386 36.3984 68.2637 37.2793 66.1582ZM79.4473 66.1582C84.4327 66.0502 89.4132 66.1585 94.3887 66.4824C95.416 68.4044 96.8547 69.9714 98.7051 71.1836C91.1879 75.319 87.2586 81.6413 86.918 90.1504C86.409 81.7457 82.48 75.4234 75.1309 71.1836C76.8797 69.7473 78.3187 68.0724 79.4473 66.1582ZM23.002 73.9395C31.5013 74.4076 36.8689 78.6225 39.1055 86.584C40.0624 92.4219 41.003 98.2578 41.9277 104.092C29.864 104.092 17.8 104.092 5.73633 104.092C6.59924 98.0315 7.54002 91.9793 8.55859 85.9355C10.7339 78.8556 15.5485 74.857 23.002 73.9395ZM65.1699 73.9395C73.1413 74.3447 78.3984 78.2354 80.9414 85.6113C81.9329 91.7413 82.9841 97.8474 84.0957 103.93C71.9211 104.146 59.7469 104.146 47.5723 103.93C48.6839 97.8474 49.7351 91.7413 50.7266 85.6113C53.0139 78.6721 57.8284 74.7815 65.1699 73.9395ZM107.006 73.9395C116.248 74.3736 121.727 79.0206 123.441 87.8809C124.318 93.2811 125.148 98.6845 125.932 104.092C113.868 104.092 101.804 104.092 89.7402 104.092C90.6649 98.2578 91.6056 92.4219 92.5625 86.584C94.4893 79.1912 99.3037 74.9763 107.006 73.9395Z" fill="white"/>
</svg>
