<svg width="22" height="15" viewBox="0 0 22 15" fill="none" xmlns="http://www.w3.org/2000/svg">
<path d="M1.91455 0.344803H19.8691C20.9248 0.344803 21.7837 1.17191 21.7837 2.18855V12.8733C21.7837 13.89 20.9248 14.7171 19.8691 14.7171H1.91455C0.858852 14.7171 -3.05176e-05 13.89 -3.05176e-05 12.8733V2.18855C-3.05176e-05 1.17191 0.858852 0.344803 1.91455 0.344803ZM2.16443 1.57397L2.41996 1.77887L10.1322 7.96324C10.5724 8.31618 11.2114 8.31618 11.6515 7.96324L19.3637 1.77887L19.6192 1.57397H2.16443ZM20.5073 2.46134L14.2235 7.50022L20.5073 11.5275V2.46134ZM1.91455 13.4879H19.8691C20.1775 13.4879 20.4354 13.2762 20.4945 12.9958L13.2001 8.32085L12.4682 8.90781C12.0115 9.27402 11.4516 9.45713 10.8918 9.45713C10.332 9.45713 9.77214 9.27402 9.3154 8.90781L8.58344 8.32085L1.28912 12.9958C1.34826 13.2762 1.60618 13.4879 1.91455 13.4879ZM1.27636 11.5275L7.56011 7.50026L1.27636 2.46134V11.5275Z" fill="#000842"/>
</svg>
