<svg width="32" height="32" viewBox="0 0 32 32" fill="none" xmlns="http://www.w3.org/2000/svg">
<path d="M10.6679 16C10.6679 13.0546 13.0551 10.6662 16.0006 10.6662C18.9462 10.6662 21.3346 13.0546 21.3346 16C21.3346 18.9454 18.9462 21.3338 16.0006 21.3338C13.0551 21.3338 10.6679 18.9454 10.6679 16ZM7.7845 16C7.7845 20.5376 11.4629 24.2158 16.0006 24.2158C20.5384 24.2158 24.2168 20.5376 24.2168 16C24.2168 11.4624 20.5384 7.78419 16.0006 7.78419C11.4629 7.78419 7.7845 11.4624 7.7845 16ZM22.622 7.45843C22.6218 7.83817 22.7343 8.20943 22.9451 8.52526C23.156 8.84108 23.4558 9.08729 23.8065 9.23275C24.1573 9.37822 24.5434 9.41639 24.9159 9.34246C25.2884 9.26852 25.6306 9.0858 25.8992 8.81739C26.1678 8.54898 26.3508 8.20694 26.4251 7.83453C26.4993 7.46211 26.4614 7.07605 26.3163 6.72516C26.1711 6.37426 25.9251 6.0743 25.6094 5.8632C25.2937 5.65211 24.9226 5.53935 24.5428 5.5392H24.542C24.033 5.53944 23.5449 5.74169 23.1849 6.10155C22.8249 6.4614 22.6224 6.94942 22.622 7.45843V7.45843ZM9.53638 29.0236C7.97638 28.9526 7.12848 28.6927 6.565 28.4732C5.81796 28.1824 5.28495 27.836 4.72454 27.2764C4.16413 26.7168 3.81724 26.1843 3.52769 25.4373C3.30804 24.8741 3.04819 24.026 2.97727 22.466C2.8997 20.7795 2.88421 20.2729 2.88421 16.0001C2.88421 11.7274 2.90098 11.2221 2.97727 9.53421C3.04831 7.97427 3.31008 7.12781 3.52769 6.56294C3.81852 5.81594 4.1649 5.28294 4.72454 4.72256C5.28418 4.16218 5.81668 3.8153 6.565 3.52576C7.12822 3.30611 7.97638 3.04627 9.53638 2.97536C11.223 2.89779 11.7296 2.8823 16.0006 2.8823C20.2717 2.8823 20.7788 2.89907 22.4668 2.97536C24.0268 3.0464 24.8733 3.30816 25.4382 3.52576C26.1852 3.8153 26.7183 4.16294 27.2787 4.72256C27.8391 5.28218 28.1847 5.81594 28.4755 6.56294C28.6952 7.12614 28.955 7.97427 29.0259 9.53421C29.1035 11.2221 29.119 11.7274 29.119 16.0001C29.119 20.2729 29.1035 20.7781 29.0259 22.466C28.9549 24.026 28.6938 24.8739 28.4755 25.4373C28.1847 26.1843 27.8383 26.7173 27.2787 27.2764C26.719 27.8355 26.1852 28.1824 25.4382 28.4732C24.875 28.6929 24.0268 28.9527 22.4668 29.0236C20.7802 29.1012 20.2736 29.1167 16.0006 29.1167C11.7277 29.1167 11.2225 29.1012 9.53638 29.0236V29.0236ZM9.4039 0.096896C7.70053 0.174464 6.53658 0.444544 5.52009 0.840064C4.46738 1.24851 3.57621 1.79648 2.68568 2.68557C1.79514 3.57466 1.24856 4.4672 0.840098 5.51987C0.444562 6.53696 0.174471 7.70022 0.0968999 9.40352C0.0180487 11.1095 0 11.6549 0 16C0 20.3451 0.0180487 20.8905 0.0968999 22.5965C0.174471 24.2999 0.444562 25.463 0.840098 26.4801C1.24856 27.5322 1.79527 28.4257 2.68568 29.3144C3.57608 30.2031 4.46738 30.7503 5.52009 31.1599C6.5385 31.5555 7.70053 31.8255 9.4039 31.9031C11.1108 31.9807 11.6554 32 16.0006 32C20.3459 32 20.8913 31.982 22.5974 31.9031C24.3009 31.8255 25.4641 31.5555 26.4812 31.1599C27.5333 30.7503 28.4251 30.2035 29.3156 29.3144C30.2061 28.4253 30.7516 27.5322 31.1612 26.4801C31.5567 25.463 31.8281 24.2998 31.9044 22.5965C31.982 20.8892 32 20.3451 32 16C32 11.6549 31.982 11.1095 31.9044 9.40352C31.8268 7.7001 31.5567 6.53632 31.1612 5.51987C30.7516 4.46784 30.2047 3.57606 29.3156 2.68557C28.4265 1.79507 27.5333 1.24851 26.4825 0.840064C25.4641 0.444544 24.3007 0.173184 22.5987 0.096896C20.8926 0.019328 20.3472 0 16.0019 0C11.6567 0 11.1108 0.018048 9.4039 0.096896Z" fill="url(#paint0_radial_932_109)"/>
<path d="M10.6679 16C10.6679 13.0546 13.0551 10.6662 16.0006 10.6662C18.9462 10.6662 21.3346 13.0546 21.3346 16C21.3346 18.9454 18.9462 21.3338 16.0006 21.3338C13.0551 21.3338 10.6679 18.9454 10.6679 16ZM7.7845 16C7.7845 20.5376 11.4629 24.2158 16.0006 24.2158C20.5384 24.2158 24.2168 20.5376 24.2168 16C24.2168 11.4624 20.5384 7.78419 16.0006 7.78419C11.4629 7.78419 7.7845 11.4624 7.7845 16ZM22.622 7.45843C22.6218 7.83817 22.7343 8.20943 22.9451 8.52526C23.156 8.84108 23.4558 9.08729 23.8065 9.23275C24.1573 9.37822 24.5434 9.41639 24.9159 9.34246C25.2884 9.26852 25.6306 9.0858 25.8992 8.81739C26.1678 8.54898 26.3508 8.20694 26.4251 7.83453C26.4993 7.46211 26.4614 7.07605 26.3163 6.72516C26.1711 6.37426 25.9251 6.0743 25.6094 5.8632C25.2937 5.65211 24.9226 5.53935 24.5428 5.5392H24.542C24.033 5.53944 23.5449 5.74169 23.1849 6.10155C22.8249 6.4614 22.6224 6.94942 22.622 7.45843V7.45843ZM9.53638 29.0236C7.97638 28.9526 7.12848 28.6927 6.565 28.4732C5.81796 28.1824 5.28495 27.836 4.72454 27.2764C4.16413 26.7168 3.81724 26.1843 3.52769 25.4373C3.30804 24.8741 3.04819 24.026 2.97727 22.466C2.8997 20.7795 2.88421 20.2729 2.88421 16.0001C2.88421 11.7274 2.90098 11.2221 2.97727 9.53421C3.04831 7.97427 3.31008 7.12781 3.52769 6.56294C3.81852 5.81594 4.1649 5.28294 4.72454 4.72256C5.28418 4.16218 5.81668 3.8153 6.565 3.52576C7.12822 3.30611 7.97638 3.04627 9.53638 2.97536C11.223 2.89779 11.7296 2.8823 16.0006 2.8823C20.2717 2.8823 20.7788 2.89907 22.4668 2.97536C24.0268 3.0464 24.8733 3.30816 25.4382 3.52576C26.1852 3.8153 26.7183 4.16294 27.2787 4.72256C27.8391 5.28218 28.1847 5.81594 28.4755 6.56294C28.6952 7.12614 28.955 7.97427 29.0259 9.53421C29.1035 11.2221 29.119 11.7274 29.119 16.0001C29.119 20.2729 29.1035 20.7781 29.0259 22.466C28.9549 24.026 28.6938 24.8739 28.4755 25.4373C28.1847 26.1843 27.8383 26.7173 27.2787 27.2764C26.719 27.8355 26.1852 28.1824 25.4382 28.4732C24.875 28.6929 24.0268 28.9527 22.4668 29.0236C20.7802 29.1012 20.2736 29.1167 16.0006 29.1167C11.7277 29.1167 11.2225 29.1012 9.53638 29.0236V29.0236ZM9.4039 0.096896C7.70053 0.174464 6.53658 0.444544 5.52009 0.840064C4.46738 1.24851 3.57621 1.79648 2.68568 2.68557C1.79514 3.57466 1.24856 4.4672 0.840098 5.51987C0.444562 6.53696 0.174471 7.70022 0.0968999 9.40352C0.0180487 11.1095 0 11.6549 0 16C0 20.3451 0.0180487 20.8905 0.0968999 22.5965C0.174471 24.2999 0.444562 25.463 0.840098 26.4801C1.24856 27.5322 1.79527 28.4257 2.68568 29.3144C3.57608 30.2031 4.46738 30.7503 5.52009 31.1599C6.5385 31.5555 7.70053 31.8255 9.4039 31.9031C11.1108 31.9807 11.6554 32 16.0006 32C20.3459 32 20.8913 31.982 22.5974 31.9031C24.3009 31.8255 25.4641 31.5555 26.4812 31.1599C27.5333 30.7503 28.4251 30.2035 29.3156 29.3144C30.2061 28.4253 30.7516 27.5322 31.1612 26.4801C31.5567 25.463 31.8281 24.2998 31.9044 22.5965C31.982 20.8892 32 20.3451 32 16C32 11.6549 31.982 11.1095 31.9044 9.40352C31.8268 7.7001 31.5567 6.53632 31.1612 5.51987C30.7516 4.46784 30.2047 3.57606 29.3156 2.68557C28.4265 1.79507 27.5333 1.24851 26.4825 0.840064C25.4641 0.444544 24.3007 0.173184 22.5987 0.096896C20.8926 0.019328 20.3472 0 16.0019 0C11.6567 0 11.1108 0.018048 9.4039 0.096896Z" fill="url(#paint1_radial_932_109)"/>
<defs>
<radialGradient id="paint0_radial_932_109" cx="0" cy="0" r="1" gradientUnits="userSpaceOnUse" gradientTransform="translate(4.25156 32.1512) scale(41.775 41.7733)">
<stop offset="0.09" stop-color="#FA8F21"/>
<stop offset="0.78" stop-color="#D82D7E"/>
</radialGradient>
<radialGradient id="paint1_radial_932_109" cx="0" cy="0" r="1" gradientUnits="userSpaceOnUse" gradientTransform="translate(19.4074 33.5848) scale(32.9245 32.9231)">
<stop offset="0.64" stop-color="#8C3AAA" stop-opacity="0"/>
<stop offset="1" stop-color="#8C3AAA"/>
</radialGradient>
</defs>
</svg>
