<svg width="25" height="25" viewBox="0 0 25 25" fill="none" xmlns="http://www.w3.org/2000/svg">
<path d="M12.5 15C15.9463 15 18.7401 11.6421 18.7401 7.5C18.7401 3.35786 15.9463 0 12.5 0C9.05368 0 6.25989 3.35786 6.25989 7.5C6.25989 11.6421 9.05368 15 12.5 15Z" fill="black"/>
<path d="M24.7306 21.3749C23.6074 19.1249 21.4858 17.2499 18.7401 16.1249C17.9913 15.8749 17.1177 15.8749 16.4937 16.2499C15.2457 16.9999 13.9976 17.3749 12.5 17.3749C11.0024 17.3749 9.75435 16.9999 8.50633 16.2499C7.88232 15.9999 7.0087 15.8749 6.25989 16.2499C3.51424 17.3749 1.3926 19.2499 0.269376 21.4999C-0.60424 23.1249 0.768584 24.9999 2.64062 24.9999H22.3594C24.2314 24.9999 25.6042 23.1249 24.7306 21.3749Z" fill="black"/>
</svg>
