<svg width="148" height="152" viewBox="0 0 148 152" fill="none" xmlns="http://www.w3.org/2000/svg">
<path opacity="0.976" fill-rule="evenodd" clip-rule="evenodd" d="M72.5762 0.91308C73.6858 0.757775 74.6879 0.9622 75.582 1.52636C75.7931 8.47689 75.7931 15.4274 75.582 22.3779C74.4218 23.6045 73.2618 23.6045 72.1016 22.3779C71.8905 15.4274 71.8905 8.47689 72.1016 1.52636C72.3284 1.35949 72.4866 1.15505 72.5762 0.91308Z" fill="white"/>
<path opacity="0.882" fill-rule="evenodd" clip-rule="evenodd" d="M43.1504 10.7256C43.8962 10.6755 44.6343 10.7267 45.3652 10.8789C50.0585 15.4274 54.7521 19.976 59.4453 24.5244C60.1873 27.0766 59.1855 28.0476 56.4395 27.4375C51.8516 22.9912 47.2637 18.545 42.6758 14.0987C41.9446 12.8335 42.1028 11.7092 43.1504 10.7256Z" fill="white"/>
<path opacity="0.882" fill-rule="evenodd" clip-rule="evenodd" d="M102.318 10.7256C105.085 10.4908 105.981 11.6152 105.008 14.0987C100.42 18.5449 95.8321 22.9912 91.2442 27.4375C88.4981 28.0476 87.4963 27.0766 88.2383 24.5244C92.9955 19.9653 97.689 15.3657 102.318 10.7256Z" fill="white"/>
<path opacity="0.975" fill-rule="evenodd" clip-rule="evenodd" d="M24.4824 23.9111C25.9907 23.8163 27.4674 23.9696 28.9121 24.371C31.6544 25.9042 34.3964 27.4374 37.1387 28.9707C39.0966 30.7798 39.7819 32.9775 39.1953 35.5634C32.5299 47.1535 25.7797 58.7038 18.9453 70.2138C16.9853 72.838 14.4013 73.7071 11.1934 72.8203C8.29474 71.3649 5.44708 69.8317 2.6504 68.2207C0.471023 66.3817 -0.319993 64.0819 0.277351 61.3212C6.99595 49.5962 13.8514 37.9439 20.8438 26.3642C21.8403 25.1957 23.0532 24.378 24.4824 23.9111Z" fill="white"/>
<path opacity="0.975" fill-rule="evenodd" clip-rule="evenodd" d="M119.721 23.9112C122.569 23.4852 124.942 24.3029 126.84 26.3643C133.832 37.944 140.688 49.5963 147.406 61.3213C148.004 64.082 147.213 66.3818 145.033 68.2208C142.237 69.8318 139.389 71.3651 136.49 72.8204C133.282 73.7072 130.698 72.8382 128.738 70.2139C121.988 58.7661 115.238 47.318 108.488 35.8702C107.756 32.6796 108.758 30.1752 111.494 28.3575C114.295 26.9071 117.038 25.425 119.721 23.9112Z" fill="white"/>
<path opacity="0.964" fill-rule="evenodd" clip-rule="evenodd" d="M83.9668 39.8564C85.3441 39.9377 86.7154 40.091 88.0801 40.3164C91.5473 41.9477 95.1859 43.021 98.9961 43.5361C102.02 43.2249 104.92 42.5604 107.697 41.543C113.466 50.9185 119.109 60.3732 124.625 69.9072C124.836 70.2139 124.836 70.5205 124.625 70.8271C123.586 72.3462 122.425 73.777 121.145 75.1201C115.265 71.8369 109.412 68.5148 103.584 65.1543C106.061 64.6723 108.486 63.9566 110.861 63.0078C112.221 61.5816 111.957 60.5084 110.07 59.7881C101.012 63.143 92.6269 61.9677 84.916 56.2617C83.334 54.933 81.752 53.6041 80.1699 52.2754C77.4276 52.0709 74.6857 52.0709 71.9434 52.2754C69.7383 54.1054 67.6289 56.0474 65.6153 58.1016C62.6657 59.6755 59.607 59.8798 56.4395 58.7148C55.9649 58.2549 55.4903 57.7949 55.0156 57.335C54.8147 56.6803 54.9204 56.067 55.332 55.4951C58.7597 52.1733 62.1876 48.8511 65.6153 45.5293C66.7249 44.8381 67.8848 44.2248 69.0957 43.6895C74.1009 42.4276 79.0578 41.1499 83.9668 39.8564Z" fill="white"/>
<path opacity="0.968" fill-rule="evenodd" clip-rule="evenodd" d="M39.9863 41.3896C41.9673 42.0808 43.9711 42.7453 45.998 43.3828C50.6445 44.4061 55.2852 45.4281 59.9199 46.4492C57.4415 48.8511 54.9628 51.2534 52.4844 53.6553C50.6065 57.5334 51.7139 60.344 55.8066 62.0879C59.9038 63.4117 63.806 63.0029 67.5137 60.8613C69.3067 59.1236 71.0995 57.3862 72.8926 55.6484C75.0021 55.4439 77.1112 55.4439 79.2207 55.6484C84.3269 60.4241 90.3386 63.6947 97.2559 65.4609C104.481 69.627 111.759 73.7154 119.088 77.7266C121.484 80.0926 121.589 82.5457 119.404 85.0859C116.986 86.1889 114.666 85.9844 112.443 84.4727C107.67 81.7252 102.872 79.0166 98.0469 76.3467C96.324 76.9241 95.9548 77.9461 96.9395 79.4131C100.842 81.6108 104.744 83.8082 108.646 86.0059C111.445 88.3673 111.55 90.8204 108.963 93.3652C107.573 94.0932 106.096 94.2977 104.533 93.9785C100.471 91.652 96.3579 89.4034 92.1934 87.2324C90.5094 87.1282 89.8238 87.8948 90.1367 89.5322C93.116 91.3595 96.1219 93.1481 99.1543 94.8984C100.91 97.2295 100.805 99.4781 98.8379 101.645C97.1015 102.538 95.3084 102.64 93.459 101.951C90.7952 100.43 88.1057 98.9482 85.3906 97.5049C83.3226 98.4211 83.1644 99.5965 84.916 101.031C86.1269 101.567 87.2868 102.18 88.3965 102.871C90.1696 104.771 90.4332 106.867 89.1875 109.157C87.6301 110.599 85.7846 111.059 83.6504 110.537C80.6186 108.889 77.6127 107.203 74.6328 105.478C76.1338 102.47 77.8216 99.506 79.6953 96.585C81.3618 91.2804 79.5162 87.6519 74.1582 85.6992C73.321 85.5468 72.4771 85.4956 71.627 85.5459C72.4332 79.6477 69.7965 76.2746 63.7168 75.4268C62.2389 75.5037 60.8679 75.9125 59.6035 76.6533C56.8109 71.7477 52.6976 70.2657 47.2637 72.207C44.0129 66.8966 39.6889 65.8743 34.291 69.1406C32.4027 71.832 30.5568 74.5409 28.7539 77.2666C26.5448 75.1885 24.5936 72.8887 22.9004 70.3672C28.4097 60.5875 34.105 50.9283 39.9863 41.3896Z" fill="white"/>
<path opacity="0.944" fill-rule="evenodd" clip-rule="evenodd" d="M38.4043 70.5205C42.6685 70.5033 44.5141 72.5477 43.9414 76.6533C41.6212 80.5375 39.3007 84.4214 36.9805 88.3056C34.0066 90.883 31.37 90.5763 29.0703 87.3857C28.9909 86.793 28.8327 86.2309 28.5957 85.6992C30.7577 80.8399 33.3418 76.1894 36.3477 71.7471C37.0105 71.2488 37.6959 70.84 38.4043 70.5205Z" fill="white"/>
<path opacity="0.946" fill-rule="evenodd" clip-rule="evenodd" d="M50.1113 74.8135C54.7464 74.4505 56.6976 76.4945 55.9648 80.9463C52.9061 86.0571 49.8478 91.1676 46.7891 96.2784C44.2679 98.7079 41.7367 98.7079 39.1953 96.2784C38.1727 94.5501 38.1727 92.8127 39.1953 91.0655C42.0173 86.5159 44.7596 81.9162 47.4219 77.2667C48.0781 76.1698 48.9745 75.352 50.1113 74.8135Z" fill="white"/>
<path opacity="0.945" fill-rule="evenodd" clip-rule="evenodd" d="M62.4512 78.7998C67.5817 78.8127 69.3219 81.1637 67.6719 85.8525C64.3768 91.5245 61.0017 97.1464 57.5469 102.718C55.0159 104.802 52.59 104.7 50.2695 102.411C49.3504 100.832 49.245 99.196 49.9531 97.5049C53.1172 92.1899 56.2812 86.8746 59.4453 81.5596C60.2066 80.3612 61.2083 79.4413 62.4512 78.7998Z" fill="white"/>
<path opacity="0.944" fill-rule="evenodd" clip-rule="evenodd" d="M70.9942 88.919C75.5286 88.7616 77.3742 90.806 76.5313 95.0518C74.3965 98.8835 72.1816 102.665 69.8867 106.397C68.4382 108.101 66.5923 108.663 64.3496 108.084C61.7371 106.646 60.946 104.551 61.9766 101.798C64.1661 98.2703 66.2753 94.6927 68.3047 91.0654C69.0843 90.1513 69.9807 89.4359 70.9942 88.919Z" fill="white"/>
<path opacity="0.893" fill-rule="evenodd" clip-rule="evenodd" d="M24.166 101.798C26.8188 102.221 27.3459 103.499 25.748 105.631C20.2637 108.697 14.7793 111.764 9.29491 114.83C6.28896 115.24 5.44523 114.116 6.76366 111.457C12.5944 108.225 18.3952 105.005 24.166 101.798Z" fill="white"/>
<path opacity="0.894" fill-rule="evenodd" clip-rule="evenodd" d="M122.568 101.798C123.221 101.855 123.854 102.009 124.467 102.258C129.74 105.222 135.014 108.186 140.287 111.15C141.819 112.283 141.924 113.51 140.604 114.83C139.865 115.035 139.127 115.035 138.389 114.83C132.904 111.764 127.42 108.697 121.936 105.631C120.546 104.041 120.757 102.763 122.568 101.798Z" fill="white"/>
<path opacity="0.894" fill-rule="evenodd" clip-rule="evenodd" d="M44.7324 122.036C47.2099 122.026 48.0009 123.15 47.1055 125.409C44.0468 130.52 40.9884 135.63 37.9297 140.741C36.7609 142.226 35.4953 142.328 34.1328 141.048C33.9218 140.332 33.9218 139.617 34.1328 138.901C37.2969 133.586 40.461 128.271 43.625 122.956C43.9873 122.608 44.3565 122.301 44.7324 122.036Z" fill="white"/>
<path opacity="0.894" fill-rule="evenodd" clip-rule="evenodd" d="M101.369 122.036C102.433 121.904 103.329 122.211 104.059 122.956C107.223 128.271 110.387 133.586 113.551 138.901C113.973 141.814 112.814 142.632 110.07 141.354C106.621 135.639 103.299 129.864 100.104 124.029C100.21 123.134 100.632 122.469 101.369 122.036Z" fill="white"/>
<path opacity="0.977" fill-rule="evenodd" clip-rule="evenodd" d="M72.8926 129.395C73.9905 129.204 74.8872 129.51 75.582 130.315C75.7931 137.266 75.7931 144.216 75.582 151.167C74.4218 151.985 73.2618 151.985 72.1016 151.167C71.8905 144.216 71.8905 137.266 72.1016 130.315C72.4322 130.048 72.6958 129.741 72.8926 129.395Z" fill="white"/>
</svg>
