<svg width="22" height="22" viewBox="0 0 22 22" fill="none" xmlns="http://www.w3.org/2000/svg">
<g clip-path="url(#clip0_245_26)">
<path d="M16.6623 9.56779V6.24569C16.6715 4.74252 16.0481 3.29716 14.9351 2.24316C13.8591 1.21139 12.4506 0.646591 10.9589 0.646591C10.9358 0.646591 10.9081 0.646591 10.885 0.646591C7.70313 0.651038 5.11698 3.15929 5.11698 6.24569V9.56779C3.91626 9.70566 3.03882 10.6752 3.03882 11.8492V19.3117C3.03882 20.5792 4.09175 21.6243 5.40792 21.6243H16.376C17.6921 21.6243 18.7451 20.5792 18.7451 19.3117V11.8492C18.7405 10.6796 17.863 9.70566 16.6623 9.56779ZM6.03598 6.24569H6.0406C6.0406 3.64849 8.21574 1.5227 10.8896 1.5227H10.8943C12.1642 1.51825 13.3834 2.00301 14.284 2.86577C15.2214 3.75967 15.7433 4.97822 15.7341 6.24569V9.57224H14.7181V6.24569C14.7273 5.23616 14.3117 4.26666 13.5682 3.5551C12.8662 2.87912 11.9149 2.49665 10.922 2.49665H10.8943C8.76992 2.49665 7.05197 4.17772 7.05197 6.24124V9.57224H6.03598V6.24569ZM13.7991 6.24569V9.57224H7.98022V6.24569C7.98022 4.67136 9.28253 3.39055 10.8989 3.39055H10.9266C11.6747 3.39055 12.3952 3.67962 12.9262 4.19106C13.4896 4.73362 13.8083 5.47632 13.7991 6.24569ZM17.863 19.3251C17.863 20.1034 17.2072 20.7349 16.3991 20.7349H5.42639C4.61822 20.7349 3.96244 20.1034 3.96244 19.3251V11.8715C3.96244 11.0932 4.61822 10.4617 5.42639 10.4617H16.3991C17.2072 10.4617 17.863 11.0932 17.863 11.8715V19.3251Z" fill="#000842"/>
<path d="M12.4874 15.3226C12.2842 14.6333 11.6331 14.1618 10.8896 14.1618C9.97055 14.1618 9.22241 14.8779 9.22241 15.7673C9.22241 16.4833 9.71193 17.1104 10.4277 17.3061V18.5513C10.4277 18.7959 10.6356 18.996 10.8896 18.996C11.1436 18.996 11.3514 18.7959 11.3514 18.5513V17.3061C12.2334 17.0615 12.746 16.172 12.4874 15.3226ZM10.8896 16.4789C10.4785 16.4789 10.146 16.1587 10.146 15.7629C10.146 15.3671 10.4785 15.0469 10.8896 15.0469C11.3006 15.0469 11.6331 15.3671 11.6331 15.7629C11.6331 16.1587 11.3006 16.4789 10.8896 16.4789Z" fill="#000842"/>
</g>
<defs>
<clipPath id="clip0_245_26">
<rect width="21.7837" height="20.9777" fill="white" transform="translate(0 0.646591)"/>
</clipPath>
</defs>
</svg>
