<svg width="141" height="128" viewBox="0 0 141 128" fill="none" xmlns="http://www.w3.org/2000/svg">
<path opacity="0.868" fill-rule="evenodd" clip-rule="evenodd" d="M30.4854 0.563477C33.7744 0.652937 34.793 2.37171 33.541 5.71973C31.6724 7.17492 30.1205 6.85265 28.8848 4.75293C28.4689 2.88382 29.0024 1.48735 30.4854 0.563477Z" fill="white"/>
<path opacity="0.917" fill-rule="evenodd" clip-rule="evenodd" d="M96.8369 2.49707C100.814 2.2284 102.512 4.2694 101.93 8.62012C100.649 10.9192 98.8542 11.6174 96.5459 10.7148C94.1543 8.87455 93.7178 6.56497 95.2363 3.78614C95.8227 3.40051 96.3564 2.97084 96.8369 2.49707Z" fill="white"/>
<path opacity="0.845" fill-rule="evenodd" clip-rule="evenodd" d="M61.6241 4.75297C63.4004 4.6231 64.4673 5.53618 64.8252 7.49223C64.1157 9.47288 62.9517 9.90259 61.333 8.78129C60.1207 7.28866 60.2176 5.9459 61.6241 4.75297Z" fill="white"/>
<path opacity="0.839" fill-rule="evenodd" clip-rule="evenodd" d="M66.8623 4.75293C69.2582 4.44768 70.0827 5.52189 69.3359 7.97559C67.5948 10.2464 66.2852 10.0315 65.4072 7.33106C65.4573 6.14099 65.9424 5.28164 66.8623 4.75293Z" fill="white"/>
<path opacity="0.86" fill-rule="evenodd" clip-rule="evenodd" d="M118.663 7.00879C120.332 7.25593 121.011 8.33017 120.7 10.2314C121.038 11.8954 120.456 12.8622 118.954 13.1318C117.464 12.7894 116.785 11.7689 116.917 10.0703C116.815 8.51632 117.397 7.49583 118.663 7.00879Z" fill="white"/>
<path opacity="0.848" fill-rule="evenodd" clip-rule="evenodd" d="M12.7334 8.62012C15.0519 8.94776 15.7794 10.3443 14.916 12.8096C13.849 14.0986 12.7819 14.0986 11.7149 12.8096C11.5208 11.7354 11.5208 10.6611 11.7149 9.58691C12.0481 9.22069 12.3876 8.89843 12.7334 8.62012Z" fill="white"/>
<path opacity="0.845" fill-rule="evenodd" clip-rule="evenodd" d="M62.7881 9.90918C65.2877 11.0288 65.4818 12.5864 63.3702 14.582C60.5269 14.7325 59.848 13.4435 61.3331 10.7148C61.8613 10.471 62.3461 10.2024 62.7881 9.90918Z" fill="white"/>
<path opacity="0.852" fill-rule="evenodd" clip-rule="evenodd" d="M67.1533 9.90918C69.6089 10.772 70.094 12.3296 68.6084 14.582C65.8298 14.8226 64.9081 13.4799 65.8437 10.5537C66.3158 10.3607 66.7523 10.1459 67.1533 9.90918Z" fill="white"/>
<path opacity="0.843" fill-rule="evenodd" clip-rule="evenodd" d="M8.95024 12.8096C10.7737 12.3639 11.8408 13.1158 12.1514 15.0654C12.1787 15.8427 11.8877 16.4334 11.2784 16.8379C8.63923 17.7231 7.52365 16.7025 7.93169 13.7764C8.26493 13.4101 8.60443 13.0879 8.95024 12.8096Z" fill="white"/>
<path opacity="0.838" fill-rule="evenodd" clip-rule="evenodd" d="M15.9346 12.8095C18.5803 12.6668 19.4533 13.9022 18.5538 16.5156C17.1172 17.2939 15.8077 17.1327 14.625 16.0322C14.217 14.4685 14.6535 13.3942 15.9346 12.8095Z" fill="white"/>
<path opacity="0.856" fill-rule="evenodd" clip-rule="evenodd" d="M112.843 12.8096C114.011 12.7563 115.175 12.81 116.335 12.9707C117.314 13.946 117.459 15.0739 116.771 16.3545C115.396 17.1454 113.99 17.1992 112.552 16.5157C111.731 15.1939 111.828 13.9586 112.843 12.8096Z" fill="white"/>
<path opacity="0.856" fill-rule="evenodd" clip-rule="evenodd" d="M121.573 12.8096C122.873 12.6912 124.134 12.8523 125.356 13.293C126.255 14.8219 125.964 16.0036 124.483 16.8379C123.513 17.0529 122.543 17.0529 121.573 16.8379C120.025 15.4383 120.025 14.0955 121.573 12.8096Z" fill="white"/>
<path opacity="0.863" fill-rule="evenodd" clip-rule="evenodd" d="M12.4423 16.3545C14.2369 16.001 15.207 16.8067 15.3525 18.7715C14.9627 21.1892 13.7986 21.7799 11.8603 20.544C11.337 18.9733 11.531 17.5769 12.4423 16.3545Z" fill="white"/>
<path opacity="0.887" fill-rule="evenodd" clip-rule="evenodd" d="M45.0362 16.6768C47.9926 16.2443 49.2053 17.6407 48.6739 20.8663C47.8308 22.3664 46.6184 22.8498 45.0362 22.3164C43.6815 21.3828 43.245 20.0403 43.7266 18.2881C44.0249 17.5833 44.4614 17.0461 45.0362 16.6768Z" fill="white"/>
<path opacity="0.856" fill-rule="evenodd" clip-rule="evenodd" d="M118.081 16.6768C119.091 16.4753 119.916 16.7976 120.555 17.6436C120.749 18.9326 120.749 20.2217 120.555 21.5107C119.81 22.4289 118.888 22.6976 117.79 22.3164C117.44 22.0254 117.198 21.6496 117.062 21.1885C116.868 20.1144 116.868 19.0399 117.062 17.9658C117.263 17.3696 117.603 16.9397 118.081 16.6768Z" fill="white"/>
<path opacity="0.891" fill-rule="evenodd" clip-rule="evenodd" d="M75.5928 20.8662C78.7855 21.1211 79.9982 22.9474 79.2305 26.3447C78.0175 28.2738 76.417 28.7572 74.4287 27.7949C72.921 26.3231 72.5817 24.5507 73.4102 22.4775C74.0417 21.7289 74.7692 21.1917 75.5928 20.8662Z" fill="white"/>
<path opacity="0.966" fill-rule="evenodd" clip-rule="evenodd" d="M31.9404 28.6006C42.9653 27.967 53.4418 30.2767 63.3701 35.5293C65.8502 37.063 68.1783 38.8354 70.3545 40.8467C79.4732 33.0217 89.8528 28.9934 101.493 28.7617C111.055 28.4349 120.464 29.6164 129.722 32.3066C132.368 33.8158 133.532 36.2328 133.214 39.5576C135.358 39.6946 137.395 40.2853 139.325 41.3301C139.774 41.8389 140.113 42.43 140.344 43.1025C140.538 67.2725 140.538 91.4424 140.344 115.612C139.252 119.616 136.827 121.657 133.068 121.735C126.278 120.21 119.439 118.975 112.552 118.029C106.536 117.395 100.522 117.395 94.5088 118.029C87.8134 118.708 81.8959 121.393 76.7569 126.086C70.7893 129.248 65.4538 128.281 60.751 123.186C53.464 118.993 45.7037 117.113 37.4697 117.546C34.3588 117.557 31.2545 117.718 28.1572 118.029C21.2798 119.039 14.4409 120.275 7.64063 121.735C3.88187 121.657 1.45675 119.616 0.365242 115.612C0.171222 91.4424 0.171222 67.2725 0.365242 43.1025C0.70477 41.8673 1.43231 41.0616 2.54786 40.6855C4.15313 40.0529 5.8022 39.6769 7.49513 39.5576C7.17687 36.2328 8.34093 33.8158 10.9873 32.3066C17.9184 30.4004 24.9028 29.1652 31.9404 28.6006ZM32.2315 32.79C42.7956 32.1539 52.7873 34.4636 62.2061 39.7187C64.3252 41.188 66.3138 42.8531 68.1719 44.7139C68.3174 67.8094 68.366 90.9052 68.3174 114.001C56.3805 106.275 43.4786 103.214 29.6123 104.816C23.7627 105.296 17.9909 106.317 12.2969 107.878C11.9746 107.851 11.6836 107.743 11.4238 107.556C11.2298 84.2452 11.2298 60.9345 11.4238 37.624C11.5592 37.1629 11.8018 36.7871 12.1514 36.4961C18.7703 34.5216 25.4636 33.286 32.2315 32.79ZM101.493 32.79C110.455 32.6334 119.282 33.7613 127.976 36.1738C128.606 36.4423 129.043 36.9257 129.285 37.624C129.479 60.9345 129.479 84.2452 129.285 107.556C129.025 107.743 128.734 107.851 128.412 107.878C116.263 104.461 103.992 103.763 91.5986 105.783C84.9702 107.083 78.8589 109.768 73.2647 113.84C72.9736 114.055 72.6826 114.055 72.3916 113.84C72.0526 91.0354 72.0043 68.2083 72.2461 45.3584C72.6704 44.5656 73.2038 43.8673 73.8467 43.2637C78.8653 38.9817 84.4918 36.0813 90.7256 34.5625C94.326 33.7294 97.9151 33.1387 101.493 32.79Z" fill="white"/>
<path opacity="0.912" fill-rule="evenodd" clip-rule="evenodd" d="M20.2998 38.5909C20.826 38.588 21.3111 38.7491 21.7548 39.0743C22.2516 40.121 22.7851 41.1416 23.3554 42.1358C27.3653 43.8667 27.4139 45.6929 23.5009 47.6143C22.9907 48.4216 22.5542 49.2807 22.1914 50.1924C21.649 51.0648 20.9215 51.3336 20.0087 50.9981C19.2542 50.1067 18.6722 49.0861 18.2627 47.9366C17.5337 47.3716 16.7577 46.8882 15.9345 46.4864C14.9224 45.6143 14.8254 44.6475 15.6435 43.586C17.7291 42.9953 19.0387 41.5451 19.5722 39.2354C19.8617 39.053 20.1042 38.838 20.2998 38.5909Z" fill="white"/>
<path opacity="0.908" fill-rule="evenodd" clip-rule="evenodd" d="M33.6866 47.6142C42.8256 46.8127 51.362 48.9075 59.296 53.8984C61.0994 54.8207 61.4876 56.2174 60.46 58.0879C60.0235 58.249 59.587 58.4101 59.1504 58.5713C53.5795 54.7605 47.5168 52.5584 40.962 51.9648C38.6338 51.7499 36.3057 51.7499 33.9776 51.9648C30.9513 52.3628 27.9443 52.7924 24.9561 53.2539C23.6806 52.3135 23.4866 51.1318 24.3741 49.7089C27.4449 48.6345 30.5491 47.9365 33.6866 47.6142Z" fill="white"/>
<path opacity="0.908" fill-rule="evenodd" clip-rule="evenodd" d="M99.1651 47.6142C104.461 47.3522 109.7 47.8356 114.88 49.0644C116.488 49.3512 117.119 50.3719 116.772 52.126C116.626 52.7167 116.286 53.0928 115.753 53.2539C112.671 52.7666 109.567 52.337 106.44 51.9648C97.4784 51.1775 89.1844 53.3796 81.5587 58.5713C79.9429 58.2187 79.3609 57.1446 79.8126 55.3486C83.069 52.552 86.7067 50.5649 90.7256 49.3867C93.5447 48.581 96.358 47.99 99.1651 47.6142Z" fill="white"/>
<path opacity="0.909" fill-rule="evenodd" clip-rule="evenodd" d="M33.1046 59.8603C40.4792 59.2696 47.6574 60.2902 54.6397 62.9218C56.6733 63.9399 58.6132 65.1216 60.46 66.4667C61.3476 67.8895 61.1535 69.0713 59.878 70.0117C59.3929 70.2266 58.908 70.2266 58.4229 70.0117C53.457 66.5318 48.0249 64.5982 42.126 64.2109C39.3128 63.9959 36.4998 63.9959 33.6866 64.2109C30.7735 64.6263 27.8634 64.9485 24.9561 65.1777C23.6806 64.2373 23.4866 63.0556 24.3741 61.6328C27.2816 60.8136 30.1918 60.2228 33.1046 59.8603Z" fill="white"/>
<path opacity="0.91" fill-rule="evenodd" clip-rule="evenodd" d="M98.001 59.8603C103.973 59.5609 109.89 60.0443 115.753 61.3105C116.955 62.1584 117.197 63.2863 116.48 64.6943C116.262 64.896 116.019 65.0571 115.753 65.1777C112.846 64.9485 109.936 64.6263 107.022 64.2109C99.8946 63.4761 93.0071 64.5505 86.3603 67.4335C85.0022 68.293 83.6443 69.1522 82.2861 70.0117C81.1669 70.3845 80.3424 70.0088 79.8125 68.8837C79.5849 67.9952 79.7304 67.1896 80.249 66.4667C85.6904 62.6141 91.6076 60.412 98.001 59.8603Z" fill="white"/>
<path opacity="0.913" fill-rule="evenodd" clip-rule="evenodd" d="M33.6865 72.4288C41.3472 72.0881 48.8167 73.2161 56.0947 75.8126C57.917 76.5786 59.5176 77.7065 60.8964 79.1963C61.1866 81.5595 60.2649 82.4725 58.1318 81.9356C53.8652 79.0342 49.209 77.4229 44.163 77.1016C37.9836 76.4384 31.8237 76.5995 25.6835 77.585C23.6159 76.7697 23.2764 75.4268 24.665 73.5567C27.6991 73.0362 30.7062 72.6602 33.6865 72.4288Z" fill="white"/>
<path opacity="0.913" fill-rule="evenodd" clip-rule="evenodd" d="M100.911 72.4287C105.985 72.3959 111.029 72.772 116.044 73.5567C117.296 75.1026 117.102 76.3916 115.462 77.4239C109.18 76.6172 102.875 76.5099 96.5459 77.1016C91.5 77.4229 86.8437 79.0342 82.5771 81.9356C80.444 82.4725 79.5223 81.5595 79.8125 79.1963C81.1913 77.7065 82.7919 76.5786 84.6142 75.8125C89.932 73.7684 95.3641 72.6405 100.911 72.4287Z" fill="white"/>
<path opacity="0.921" fill-rule="evenodd" clip-rule="evenodd" d="M116.044 81.7744C116.444 81.7238 116.832 81.7776 117.208 81.9355C118.287 83.1956 119.112 84.6458 119.682 86.2861C120.967 87.1862 122.277 88.0453 123.61 88.8642C124.387 89.7237 124.387 90.5829 123.61 91.4423C122.277 92.2612 120.967 93.1204 119.682 94.0205C119.108 95.6727 118.283 97.1229 117.208 98.3711C116.82 98.586 116.432 98.586 116.044 98.3711C115.104 97.0069 114.28 95.5567 113.57 94.0205C112.382 93.1742 111.169 92.3685 109.933 91.6035C109.397 90.9876 108.911 90.3431 108.478 89.6699C98.8813 88.2896 89.8598 90.1694 81.4131 95.3095C79.9033 94.8683 79.3699 93.7939 79.8125 92.0869C84.119 88.6696 88.9207 86.5748 94.2178 85.8027C100.65 84.7038 107.052 84.8649 113.425 86.2861C114.301 84.7731 115.174 83.269 116.044 81.7744Z" fill="white"/>
<path opacity="0.906" fill-rule="evenodd" clip-rule="evenodd" d="M36.0146 84.9971C44.6374 84.5111 52.6886 86.6059 60.1689 91.2813C61.3778 92.6989 61.2809 93.988 59.8779 95.1485C59.3928 95.3634 58.9079 95.3634 58.4228 95.1485C52.246 91.1018 45.5526 89.1144 38.3427 89.1866C33.848 89.4602 29.3856 89.9436 24.956 90.6368C23.7546 89.7889 23.512 88.6609 24.2285 87.253C24.4469 87.0512 24.6894 86.8901 24.956 86.7696C28.6461 85.8814 32.3324 85.2907 36.0146 84.9971Z" fill="white"/>
</svg>
