<svg width="97" height="89" viewBox="0 0 97 89" fill="none" xmlns="http://www.w3.org/2000/svg">
<g filter="url(#filter0_d_145_9)">
<path d="M16.8108 65.7972C17.173 65.7972 17.5331 65.6767 17.8163 65.4339C18.3991 64.9313 18.422 64.0974 17.8662 63.5703C10.8051 56.869 6.91438 48.0952 6.91438 38.8601C6.91438 30.7244 9.86415 23.0517 15.4473 16.6704C15.9053 16.1452 15.8574 15.3942 15.3349 14.9217L13.4051 13.1767L25.8079 10.1705L22.4834 21.3858L21.1886 20.215C20.8888 19.9439 20.4704 19.8027 20.052 19.8328C19.6294 19.8611 19.2422 20.0531 18.9883 20.3618C14.5626 25.7398 12.2248 32.1381 12.2248 38.8601C12.2248 46.6702 15.4452 54.1339 21.2927 59.8771C21.8381 60.4117 22.7603 60.4474 23.3515 59.9543C23.9427 59.4611 23.9823 58.6272 23.4368 58.0926C18.0869 52.8369 15.1392 46.0076 15.1392 38.8601C15.1392 33.2223 16.9357 27.8349 20.3497 23.1854L22.2045 24.8626C22.5729 25.1958 23.11 25.3257 23.6117 25.2033C24.1155 25.081 24.5068 24.7271 24.6422 24.2715L29.2739 8.64576C29.4092 8.19022 29.2656 7.70644 28.8972 7.37326C28.5287 7.04007 27.9916 6.91019 27.4899 7.03254L10.2097 11.2209C9.70594 11.3432 9.31458 11.6971 9.17927 12.1527C9.04396 12.6082 9.1876 13.092 9.55606 13.4252L12.3705 15.9683C6.8894 22.6282 4 30.5173 4 38.8601C4 48.7728 8.17381 58.1942 15.7554 65.3869C16.0406 65.6598 16.4257 65.7972 16.8108 65.7972Z" fill="#66B032"/>
<path d="M92.5722 27.577C92.312 27.1685 91.8311 26.9182 91.3107 26.9182H87.0058C86.8517 26.4928 86.6893 26.0654 86.5186 25.6438C83.546 18.3175 78.2397 12.0397 71.1723 7.49183C63.9447 2.84043 55.4305 0.382019 46.552 0.382019C41.2957 0.382019 36.1602 1.24227 31.289 2.9402C30.5375 3.20185 30.1649 3.96422 30.4542 4.64377C30.7436 5.32331 31.5867 5.66026 32.3382 5.39861C36.8721 3.81739 41.6538 3.01549 46.552 3.01549C63.112 3.01549 78.0732 12.4727 83.7833 26.5511C84.0601 27.2325 84.3141 27.9253 84.5369 28.6086C84.72 29.1676 85.2883 29.5535 85.9337 29.5535H88.7877L82.3677 39.6093L78.9308 34.2275C78.9225 34.2125 78.9121 34.1974 78.9038 34.1823L75.9478 29.5535H77.2571C77.7359 29.5535 78.1856 29.3408 78.4562 28.9832C78.7268 28.6255 78.7893 28.1718 78.6186 27.7671C78.3022 27.0161 77.9462 26.2631 77.559 25.5308C74.8091 20.3091 70.5083 15.8892 65.1187 12.7494C59.5835 9.52482 53.1635 7.81937 46.55 7.81937C42.3283 7.81937 38.2065 8.50456 34.2971 9.85612C33.5456 10.1159 33.1688 10.8783 33.4561 11.5578C33.7433 12.2374 34.5864 12.5781 35.3379 12.3183C38.9143 11.0816 42.6863 10.4566 46.55 10.4566C58.6051 10.4566 69.7443 16.8191 74.9298 26.6678C74.9735 26.7525 75.0172 26.8353 75.0609 26.9201H73.4226C72.9022 26.9201 72.4214 27.1704 72.1611 27.5789C71.9009 27.9874 71.9009 28.4881 72.1611 28.8966L76.3516 35.4605C76.3599 35.4756 76.3703 35.4906 76.3787 35.5057L81.1041 42.9073C81.3643 43.3157 81.8452 43.5661 82.3656 43.5661C82.8861 43.5661 83.3669 43.3157 83.6271 42.9073L92.5701 28.8985C92.8324 28.4862 92.8324 27.9855 92.5722 27.577Z" fill="#66B032"/>
<path d="M23.8573 65.3981C23.6429 65.8273 23.6991 66.3262 24.0031 66.7083L34.4594 79.8342C34.7342 80.1806 35.1756 80.382 35.6419 80.382C35.6897 80.382 35.7397 80.3801 35.7876 80.3745C36.3059 80.3274 36.7556 80.0338 36.97 79.6046L38.448 76.636C41.1022 77.101 43.8229 77.3363 46.5521 77.3363C56.3465 77.3363 65.914 74.2416 73.4934 68.6208C80.9667 63.079 86.1814 55.3518 88.1778 46.8659C88.3443 46.1544 87.8426 45.4541 87.0557 45.3035C86.2709 45.1529 85.4944 45.6066 85.3279 46.3181C81.4622 62.7647 65.1562 74.7009 46.5541 74.7009C43.6377 74.7009 40.7316 74.4129 37.9213 73.8444C37.2448 73.707 36.5578 74.0195 36.2747 74.5899L35.3525 76.4422L27.8459 67.0189L40.6234 65.8537L39.7386 67.6288C39.5534 68.0015 39.57 68.4307 39.7824 68.7902C39.9947 69.1497 40.3819 69.402 40.8274 69.4679C42.703 69.7521 44.6306 69.8971 46.5541 69.8971C62.2273 69.8971 75.8999 60.3232 79.7989 46.6137C79.9988 45.9097 79.5304 45.1906 78.7497 45.0099C77.9691 44.8292 77.176 45.2527 76.9761 45.9586C73.406 58.5048 60.895 67.2655 46.5521 67.2655C45.43 67.2655 44.3059 67.2128 43.1943 67.1055L44.3142 64.856C44.5286 64.4268 44.4724 63.928 44.1685 63.5458C43.8646 63.1637 43.3587 62.9585 42.8404 63.0056L25.0418 64.6301C24.5214 64.6753 24.0718 64.9689 23.8573 65.3981Z" fill="#66B032"/>
<path d="M56.9377 26.7751C56.9335 26.7657 56.9272 26.7563 56.9231 26.7488C56.8003 26.5172 56.6733 26.2876 56.5442 26.0598C54.3709 22.263 51.2047 18.9142 47.3868 16.3768C47.3827 16.373 47.3764 16.3711 47.3722 16.3692C47.316 16.3335 47.2577 16.2996 47.1953 16.2714C47.187 16.2676 47.1786 16.2638 47.1682 16.2601C47.1079 16.2337 47.0454 16.2092 46.9809 16.1904C46.9767 16.1885 46.9726 16.1867 46.9684 16.1867C46.9039 16.1678 46.8372 16.1547 46.7685 16.1434C46.754 16.1415 46.7415 16.1396 46.7269 16.1377C46.6603 16.1283 46.5916 16.1227 46.5229 16.1227C46.4542 16.1227 46.3855 16.1283 46.3189 16.1377C46.3043 16.1396 46.2918 16.1415 46.2773 16.1434C46.2086 16.1547 46.142 16.1678 46.0774 16.1867C46.0733 16.1885 46.0691 16.1904 46.0649 16.1904C46.0004 16.2092 45.938 16.2337 45.8776 16.2601C45.8693 16.2638 45.8588 16.2676 45.8505 16.2714C45.7881 16.2996 45.7298 16.3335 45.6736 16.3692C45.6694 16.373 45.6632 16.3749 45.659 16.3768C41.8412 18.9142 38.6728 22.263 36.5016 26.0598C34.2554 29.9846 33.0689 34.412 33.0689 38.8601C33.0689 40.3736 33.2042 41.8946 33.4706 43.3779C33.5997 44.097 34.347 44.5826 35.1443 44.4659C35.9395 44.3492 36.4766 43.6715 36.3475 42.9525C36.1061 41.6084 35.9833 40.2305 35.9833 38.8582C35.9833 37.454 36.1165 36.061 36.3704 34.6925L45.0657 43.5473V50.482V50.4839V57.4921C42.6489 55.4892 40.615 53.1042 39.1079 50.4802C38.7373 49.8345 37.8568 49.5823 37.1428 49.9173C36.4287 50.2524 36.1498 51.0486 36.5203 51.6943C38.6915 55.476 41.8516 58.8117 45.6569 61.3416C45.6611 61.3454 45.6673 61.3472 45.6715 61.3491C45.7277 61.3849 45.786 61.4188 45.8484 61.447C45.8568 61.4508 45.8651 61.4545 45.8755 61.4583C45.9359 61.4847 45.9983 61.5091 46.0629 61.528C46.067 61.5298 46.0712 61.5317 46.0753 61.5317C46.1399 61.5505 46.2065 61.5637 46.2752 61.575C46.2898 61.5769 46.3022 61.5788 46.3168 61.5807C46.3834 61.5901 46.4521 61.5957 46.5208 61.5957C46.5895 61.5957 46.6582 61.5901 46.7248 61.5807C46.7394 61.5788 46.7519 61.5769 46.7665 61.575C46.8352 61.5637 46.9018 61.5505 46.9663 61.5317C46.9705 61.5298 46.9746 61.528 46.9788 61.528C47.0433 61.5091 47.1058 61.4847 47.1662 61.4583C47.1745 61.4545 47.1849 61.4508 47.1932 61.447C47.2557 61.4188 47.314 61.3849 47.3702 61.3491C47.3743 61.3454 47.3806 61.3435 47.3847 61.3416C51.2026 58.8041 54.3709 55.4553 56.5421 51.6585C58.5905 48.0801 59.7542 44.0838 59.9436 40.0347C60.054 39.7637 60.0623 39.4663 59.9686 39.1914C59.9707 39.0804 59.9749 38.9693 59.9749 38.8582C59.9769 34.6793 58.9278 30.5192 56.9377 26.7751ZM47.9801 36.157L55.1391 29.6834C56.3923 32.5786 57.0626 35.6883 57.0626 38.8601C57.0626 38.9373 57.0605 39.0164 57.0584 39.0935L47.9801 47.3027V36.157ZM53.8463 27.1253L47.9801 32.4299V20.2282C50.3741 22.2141 52.3538 24.5558 53.8463 27.1253ZM37.1865 31.5583C38.6374 27.242 41.3499 23.3096 45.0636 20.2282V35.6092V35.6111V39.5792L37.1865 31.5583ZM47.9801 57.4921V51.0317L56.6421 43.1991C55.5783 48.6693 52.5286 53.7198 47.9801 57.4921Z" fill="#66B032"/>
<path d="M37.1115 47.6471C37.1636 47.5756 37.2073 47.4984 37.2448 47.4194C37.2801 47.3403 37.3093 47.2575 37.328 47.1728C37.3468 47.0881 37.3572 47.0015 37.3572 46.9149C37.3572 46.8302 37.3468 46.7436 37.328 46.657C37.3093 46.5742 37.2801 46.4914 37.2448 46.4123C37.2073 46.3313 37.1636 46.2561 37.1115 46.1845C37.0574 46.1111 36.997 46.0433 36.9304 45.9831C36.5911 45.6782 36.0873 45.537 35.6148 45.6236C35.5211 45.6405 35.4295 45.665 35.3421 45.6989C35.2526 45.7309 35.1693 45.7723 35.0902 45.8193C35.0111 45.8683 34.9362 45.9229 34.8695 45.9831C34.8008 46.0433 34.7405 46.1111 34.6863 46.1845C34.6343 46.2561 34.5906 46.3313 34.5531 46.4123C34.5177 46.4914 34.4886 46.5742 34.4699 46.657C34.4511 46.7436 34.4407 46.8302 34.4407 46.9149C34.4407 47.0015 34.4511 47.0881 34.4699 47.1728C34.4886 47.2575 34.5177 47.3403 34.5531 47.4194C34.5906 47.4984 34.6343 47.5756 34.6863 47.6471C34.7405 47.7187 34.8008 47.7864 34.8695 47.8467C34.9362 47.9088 35.0111 47.9634 35.0902 48.0104C35.1693 48.0575 35.2526 48.0989 35.3421 48.1328C35.4295 48.1648 35.5211 48.1912 35.6148 48.2081C35.7085 48.225 35.8042 48.2326 35.9 48.2326C36.283 48.2326 36.6577 48.0933 36.9304 47.8467C36.997 47.7864 37.0574 47.7187 37.1115 47.6471Z" fill="#66B032"/>
</g>
<defs>
<filter id="filter0_d_145_9" x="0" y="0.382019" width="96.7671" height="88" filterUnits="userSpaceOnUse" color-interpolation-filters="sRGB">
<feFlood flood-opacity="0" result="BackgroundImageFix"/>
<feColorMatrix in="SourceAlpha" type="matrix" values="0 0 0 0 0 0 0 0 0 0 0 0 0 0 0 0 0 0 127 0" result="hardAlpha"/>
<feOffset dy="4"/>
<feGaussianBlur stdDeviation="2"/>
<feComposite in2="hardAlpha" operator="out"/>
<feColorMatrix type="matrix" values="0 0 0 0 0 0 0 0 0 0 0 0 0 0 0 0 0 0 0.25 0"/>
<feBlend mode="normal" in2="BackgroundImageFix" result="effect1_dropShadow_145_9"/>
<feBlend mode="normal" in="SourceGraphic" in2="effect1_dropShadow_145_9" result="shape"/>
</filter>
</defs>
</svg>
