<svg width="40" height="42" viewBox="0 0 40 42" fill="none" xmlns="http://www.w3.org/2000/svg">
<path d="M39.4521 39.2554L27.8116 27.1079C29.9486 24.3227 31.2329 20.777 31.2329 16.9206C31.2329 7.91172 24.2363 0.61676 15.6164 0.61676C6.9863 0.61676 0 7.92243 0 16.9206C0 25.9188 6.99657 33.2245 15.6164 33.2245C19.3356 33.2245 22.7466 31.864 25.4281 29.6038L37.0582 41.7513L39.4521 39.2554ZM5.73288 27.2471C3.09247 24.4941 1.64384 20.8306 1.64384 16.9313C1.64384 13.0321 3.10274 9.36857 5.73288 6.61555C8.36301 3.86254 11.887 2.3307 15.6164 2.3307C19.3459 2.3307 22.8596 3.85182 25.5 6.60484C28.1404 9.35786 29.589 13.0214 29.589 16.9206C29.589 20.8198 28.1301 24.4834 25.5 27.2364C22.8596 29.9894 19.3459 31.5105 15.6164 31.5105C11.887 31.5213 8.37329 30.0001 5.73288 27.2471Z" fill="white"/>
</svg>
