<svg width="30" height="31" viewBox="0 0 30 31" fill="none" xmlns="http://www.w3.org/2000/svg">
<path d="M1.13682 12.4657C0.85078 12.5867 0.57502 12.7394 0.31322 12.9218C0.230954 12.9701 0.159682 13.0412 0.105402 13.1289C0.0511208 13.2166 0.0154162 13.3185 0.00128602 13.4261C-0.0118402 13.6226 0.0755866 13.8194 0.260344 14.0106C0.414017 14.1593 0.579627 14.2898 0.754799 14.4002C0.889157 14.4911 1.02599 14.5771 1.16283 14.663C1.35873 14.7859 1.56131 14.9124 1.75003 15.0528C4.30927 16.9502 6.63816 18.6325 9.19232 19.9917C9.18686 20.1 9.1808 20.208 9.17461 20.3155C9.15726 20.6195 9.13944 20.9336 9.13906 21.2437C9.13848 21.712 9.13693 22.1806 9.13436 22.6495C9.12778 24.1361 9.12098 25.6736 9.1632 27.1854C9.17844 27.7305 9.34364 28.1202 9.62831 28.2828C9.92761 28.4531 10.3124 28.3539 10.7117 28.0021C10.8557 27.8751 11.0033 27.7325 11.1628 27.5659C11.8625 26.8351 12.5612 26.1028 13.2665 25.3635L13.9057 24.6934C13.9106 24.6977 13.9153 24.702 13.9196 24.7065L14.5106 25.3089C15.1835 25.9941 15.8792 26.7025 16.5583 27.4069C16.7517 27.6069 16.9463 27.8061 17.1419 28.0039C17.7383 28.6105 18.3555 29.2378 18.9098 29.9101C19.2035 30.2658 19.4891 30.4331 19.8321 30.4331C19.9801 30.4306 20.1271 30.4047 20.2695 30.3564C20.7701 30.1949 21.0931 29.8325 21.3169 29.1827C22.1603 26.7339 23.0235 24.2467 23.858 21.8416C24.5432 19.8658 25.2278 17.89 25.9119 15.9138C27.3856 11.6716 28.6571 7.33463 29.72 2.92339C29.8488 2.41173 29.9393 1.88761 29.9906 1.35714C30.0077 1.23423 30.0014 1.10833 29.9721 0.988725C29.9425 0.869119 29.8908 0.75888 29.8206 0.666155C29.7359 0.575686 29.6353 0.508795 29.5259 0.470412C29.4168 0.432028 29.3016 0.42313 29.1889 0.444337C29.04 0.465534 28.893 0.504834 28.7506 0.561675L28.7314 0.568588C28.4117 0.681552 28.0911 0.791266 27.7704 0.90115C27.0256 1.15628 26.2555 1.42008 25.508 1.72083C20.1102 3.89446 14.6357 6.26083 9.23665 8.75428C7.67947 9.47316 6.09392 10.1982 4.56052 10.899C3.41863 11.4201 2.27739 11.9423 1.13682 12.4657ZM11.4124 19.1666C11.7096 18.8725 11.9913 18.5945 12.2804 18.3332C13.414 17.3077 14.5487 16.2838 15.6843 15.2619C17.9158 13.251 20.2233 11.1717 22.4803 9.10698C23.1705 8.47613 23.8254 7.76693 24.4589 7.08241C24.6764 6.84767 24.8938 6.61192 25.1128 6.37937C25.2876 6.19393 25.5801 5.88366 25.418 5.27745C25.4126 5.25765 25.404 5.23935 25.3925 5.22372C25.381 5.2081 25.3668 5.19549 25.3511 5.18667C25.3352 5.1779 25.3179 5.17305 25.3003 5.17244C25.2828 5.17183 25.2654 5.17546 25.2491 5.18311C25.1814 5.21554 25.1161 5.24416 25.053 5.27115C24.9217 5.32429 24.7939 5.38857 24.6705 5.46349C20.4821 8.15808 16.8386 11.6915 13.3152 15.1088C12.5183 15.8816 11.7673 16.6786 10.9729 17.5216C10.6356 17.8797 10.2948 18.2393 9.95065 18.6005L2.09194 13.5566C2.13723 13.5235 2.18478 13.495 2.2341 13.4713C3.498 12.9074 4.76142 12.3415 6.02432 11.7735C9.11677 10.3857 12.315 8.95043 15.4735 7.58518C18.2865 6.36927 21.1651 5.19132 23.9489 4.05213C24.8744 3.67344 25.7999 3.29399 26.7251 2.91383C27.0837 2.76624 27.4454 2.65079 27.8287 2.52872C27.9301 2.49645 28.032 2.46375 28.1344 2.43059C26.5921 8.22189 24.6247 13.9023 22.7209 19.3987C21.7204 22.2868 20.6868 25.271 19.7202 28.2538C17.0931 25.7478 14.5449 23.0987 12.0798 20.5356C11.7469 20.189 11.4132 19.8424 11.0789 19.4956C11.1925 19.3833 11.3034 19.2739 11.412 19.1666H11.4124ZM12.8725 23.5843L10.6187 25.8468L10.44 20.9223L12.8725 23.5843Z" fill="white"/>
</svg>
