<svg width="40" height="41" viewBox="0 0 40 41" fill="none" xmlns="http://www.w3.org/2000/svg">
<path d="M38.952 5.85625C38.5606 5.36958 37.997 5.08959 37.4027 5.08959H9.08125L8.68161 2.50292C8.51765 1.43181 7.66303 0.645142 6.66085 0.645142H2.04958C0.916228 0.645142 0.00012207 1.63847 0.00012207 2.86736C0.00012207 4.09625 0.916228 5.08959 2.04958 5.08959H4.92496L8.73694 29.8985C8.75334 29.9985 8.80048 30.0807 8.82917 30.174C8.86196 30.2918 8.8886 30.4029 8.93984 30.5096C9.00542 30.6562 9.09355 30.7807 9.18577 30.9074C9.24931 30.994 9.30669 31.0807 9.38047 31.1562C9.49934 31.2762 9.63665 31.3607 9.77602 31.4451C9.8539 31.4918 9.92153 31.554 10.0056 31.5896C10.2433 31.694 10.4933 31.7562 10.7577 31.7562C10.7598 31.7562 33.3037 31.7562 33.3037 31.7562C34.4371 31.7562 35.3532 30.7629 35.3532 29.534C35.3532 28.3051 34.4371 27.3118 33.3037 27.3118H12.4956L12.1554 25.0896H35.3532C36.3738 25.0896 37.2387 24.2762 37.3822 23.1829L39.4316 7.62736C39.5156 6.98736 39.3394 6.3407 38.952 5.85625ZM35.0396 9.53403L34.4555 13.9785H27.1554V9.53403H35.0396ZM25.1059 9.53403V13.9785H18.9576V9.53403H25.1059ZM25.1059 16.2007V20.6451H18.9576V16.2007H25.1059ZM16.9081 9.53403V13.9785H10.7598C10.6511 13.9785 10.5528 14.0118 10.4564 14.0451L9.76372 9.53403H16.9081ZM10.7884 16.2007H16.9081V20.6451H11.4709L10.7884 16.2007ZM27.1554 20.6451V16.2007H34.1604L33.5763 20.6451H27.1554Z" fill="black"/>
<path d="M13.8341 40.6451C15.5319 40.6451 16.9082 39.1527 16.9082 37.3118C16.9082 35.4708 15.5319 33.9785 13.8341 33.9785C12.1362 33.9785 10.7599 35.4708 10.7599 37.3118C10.7599 39.1527 12.1362 40.6451 13.8341 40.6451Z" fill="black"/>
<path d="M32.2791 40.6451C33.977 40.6451 35.3533 39.1527 35.3533 37.3118C35.3533 35.4708 33.977 33.9785 32.2791 33.9785C30.5813 33.9785 29.205 35.4708 29.205 37.3118C29.205 39.1527 30.5813 40.6451 32.2791 40.6451Z" fill="black"/>
</svg>
