<svg width="33" height="33" viewBox="0 0 33 33" fill="none" xmlns="http://www.w3.org/2000/svg">
<path d="M32.2717 4.36166C31.2366 4.90207 30.1484 5.27839 29.034 5.4813C29.555 5.37295 30.3216 4.23525 30.6268 3.77475C31.0904 3.08013 31.4437 2.28717 31.6688 1.43614C31.6688 1.37293 31.7209 1.28264 31.6688 1.23749C31.6426 1.22011 31.6132 1.21099 31.5832 1.21099C31.5533 1.21099 31.5239 1.22011 31.4976 1.23749C30.2875 2.03246 28.9996 2.6392 27.6644 3.04337C27.6179 3.06062 27.5683 3.06216 27.5211 3.04785C27.4739 3.03353 27.4308 3.00389 27.3965 2.96211C27.2925 2.81197 27.1806 2.67021 27.0615 2.53772C26.5169 1.9458 25.899 1.46134 25.2305 1.10205C24.328 0.65291 23.3533 0.458396 22.3798 0.533201C21.4352 0.605569 20.5129 0.91292 19.6704 1.43614C18.8408 1.98776 18.1116 2.73717 17.5268 3.63931C16.9116 4.56785 16.4675 5.64544 16.2242 6.79959C16.0237 7.89743 16.0009 9.0321 16.1573 10.1405C16.1573 10.3301 16.1573 10.3572 16.0233 10.3301C10.7163 9.382 6.36204 7.09756 2.8042 2.19461C2.64789 1.9779 2.56601 1.9779 2.43948 2.19461C0.8913 5.04789 1.64306 9.56259 3.57829 11.7928C3.8388 12.0908 4.10675 12.3798 4.38959 12.6506C3.5023 12.5742 2.63669 12.2825 1.84403 11.7928C1.69516 11.6755 1.61329 11.7387 1.60584 11.9554C1.58475 12.2558 1.58475 12.5579 1.60584 12.8583C1.76115 14.2981 2.2289 15.6621 2.96125 16.8107C3.6936 17.9593 4.66428 18.8513 5.77402 19.3956C6.04455 19.5362 6.32644 19.6421 6.6151 19.7116C5.79369 19.9078 4.95123 19.9383 4.12164 19.8019C3.943 19.7568 3.87601 19.8741 3.943 20.0818C5.03715 23.6936 7.41152 24.7952 9.15323 25.4092C9.39141 25.4543 9.62959 25.4543 9.89755 25.5265C9.89755 25.5265 9.89754 25.5265 9.85289 25.5807C9.33931 26.7184 7.26266 27.4859 6.30993 27.8832C4.57096 28.641 2.7169 28.9306 0.876413 28.732C0.586129 28.6778 0.519141 28.6868 0.444709 28.732C0.370277 28.7771 0.444709 28.8764 0.526584 28.9667C0.898743 29.2647 1.2709 29.5266 1.65795 29.7794C2.81019 30.5418 4.02833 31.1474 5.29022 31.5853C11.8253 33.7704 19.1792 32.1631 24.0842 26.2489C27.9398 21.6078 29.2945 15.206 29.2945 8.79509C29.2945 8.55129 29.5401 8.40682 29.6815 8.28041C30.657 7.35842 31.5169 6.26956 32.2345 5.04789C32.3588 4.86579 32.4225 4.63392 32.4132 4.39778V4.39778C32.4132 4.26234 32.4132 4.28942 32.2717 4.36166Z" fill="#33CCFF"/>
</svg>
