<svg width="32" height="32" viewBox="0 0 32 32" fill="none" xmlns="http://www.w3.org/2000/svg">
<path d="M16 32C24.8365 32 32 24.8365 32 16C32 7.16346 24.8365 0 16 0C7.16346 0 0 7.16346 0 16C0 24.8365 7.16346 32 16 32Z" fill="#34AADF"/>
<path d="M6.8589 15.6495C6.8589 15.6495 14.7845 12.2777 17.5332 11.0904C18.5869 10.6155 22.1603 9.09579 22.1603 9.09579C22.1603 9.09579 23.8096 8.43096 23.6721 10.0456C23.6263 10.7105 23.2598 13.0375 22.8933 15.5545C22.3435 19.1164 21.748 23.0106 21.748 23.0106C21.748 23.0106 21.6564 24.1029 20.8776 24.2928C20.0988 24.4828 18.8159 23.628 18.5869 23.438C18.4036 23.2956 15.151 21.1584 13.9598 20.1136C13.6391 19.8287 13.2727 19.2589 14.0056 18.594C15.6549 17.0268 17.6248 15.0797 18.8159 13.8449C19.3657 13.275 19.9154 11.9453 17.6248 13.5599C14.3722 15.887 11.1653 18.0716 11.1653 18.0716C11.1653 18.0716 10.4323 18.5464 9.0579 18.119C7.68348 17.6917 6.08004 17.1217 6.08004 17.1217C6.08004 17.1217 4.9806 16.4094 6.8589 15.6495Z" fill="white"/>
</svg>
