<svg width="42" height="43" viewBox="0 0 42 43" fill="none" xmlns="http://www.w3.org/2000/svg">
<path d="M20.7261 41.6451C31.6205 41.6451 40.4522 32.6908 40.4522 21.6451C40.4522 10.5994 31.6205 1.64514 20.7261 1.64514C9.83177 1.64514 1.00012 10.5994 1.00012 21.6451C1.00012 32.6908 9.83177 41.6451 20.7261 41.6451Z" stroke="black" stroke-width="2" stroke-miterlimit="10" stroke-linejoin="round"/>
<path d="M33.8767 36.3118C33.8767 28.9478 27.9891 22.9785 20.726 22.9785C13.4629 22.9785 7.57532 28.9478 7.57532 36.3118" stroke="black" stroke-width="2" stroke-miterlimit="10" stroke-linejoin="round"/>
<path d="M20.7261 22.9785C25.0839 22.9785 28.6165 19.3967 28.6165 14.9785C28.6165 10.5602 25.0839 6.97845 20.7261 6.97845C16.3684 6.97845 12.8357 10.5602 12.8357 14.9785C12.8357 19.3967 16.3684 22.9785 20.7261 22.9785Z" stroke="black" stroke-width="2" stroke-miterlimit="10" stroke-linejoin="round"/>
</svg>
