<svg width="21" height="21" viewBox="0 0 21 21" fill="none" xmlns="http://www.w3.org/2000/svg">
<g clip-path="url(#clip0_241_61)">
<path d="M10.1052 9.88696C11.462 9.88696 12.6367 9.41834 13.5968 8.49376C14.5566 7.56933 15.0434 6.43823 15.0434 5.13149C15.0434 3.82521 14.5567 2.69396 13.5966 1.76923C12.6365 0.844945 11.4618 0.376328 10.1052 0.376328C8.74824 0.376328 7.57368 0.844945 6.61372 1.76938C5.65377 2.69381 5.16699 3.82506 5.16699 5.13149C5.16699 6.43823 5.65377 7.56948 6.61372 8.49391C7.57399 9.41819 8.7487 9.88696 10.1052 9.88696ZM7.4634 2.58746C8.19998 1.87813 9.06405 1.53334 10.1052 1.53334C11.1462 1.53334 12.0104 1.87813 12.7471 2.58746C13.4837 3.29694 13.8419 4.12918 13.8419 5.13149C13.8419 6.1341 13.4837 6.9662 12.7471 7.67568C12.0104 8.38515 11.1462 8.72995 10.1052 8.72995C9.06436 8.72995 8.2003 8.385 7.4634 7.67568C6.72666 6.96635 6.36846 6.1341 6.36846 5.13149C6.36846 4.12918 6.72666 3.29694 7.4634 2.58746Z" fill="black"/>
<path d="M18.7456 15.5583C18.7179 15.1735 18.6619 14.7539 18.5795 14.3107C18.4963 13.8642 18.3891 13.4422 18.2609 13.0564C18.1282 12.6577 17.9482 12.2639 17.7253 11.8866C17.4943 11.4949 17.2227 11.1539 16.918 10.8733C16.5994 10.5797 16.2093 10.3437 15.7582 10.1715C15.3086 10.0002 14.8104 9.91345 14.2775 9.91345C14.0682 9.91345 13.8658 9.99615 13.4749 10.2412C13.2343 10.3923 12.9529 10.567 12.6388 10.7603C12.3702 10.9251 12.0064 11.0795 11.557 11.2193C11.1186 11.3559 10.6734 11.4252 10.2339 11.4252C9.79463 11.4252 9.34945 11.3559 8.91069 11.2193C8.46177 11.0796 8.09778 10.9252 7.82967 10.7605C7.51855 10.569 7.237 10.3943 6.99282 10.2411C6.60224 9.996 6.39983 9.9133 6.19054 9.9133C5.65746 9.9133 5.15942 10.0002 4.71003 10.1716C4.25922 10.3435 3.86895 10.5795 3.55001 10.8734C3.24531 11.1542 2.97376 11.4951 2.74288 11.8866C2.5203 12.2639 2.3401 12.6575 2.20746 13.0565C2.07935 13.4423 1.9722 13.8642 1.88899 14.3107C1.8064 14.7533 1.75055 15.1731 1.72287 15.5587C1.69565 15.9357 1.68188 16.3281 1.68188 16.7246C1.68188 17.7552 2.0221 18.5896 2.69299 19.2049C3.35558 19.8121 4.23216 20.12 5.29848 20.12H15.1705C16.2365 20.12 17.1131 19.8121 17.7758 19.2049C18.4469 18.59 18.7871 17.7554 18.7871 16.7244C18.7869 16.3266 18.773 15.9342 18.7456 15.5583ZM16.9474 18.3666C16.5096 18.7679 15.9283 18.963 15.1703 18.963H5.29848C4.54031 18.963 3.95905 18.7679 3.52139 18.3668C3.09201 17.9732 2.88335 17.4359 2.88335 16.7246C2.88335 16.3546 2.89602 15.9894 2.92136 15.6387C2.94607 15.2946 2.9966 14.9167 3.07152 14.5151C3.14551 14.1185 3.23967 13.7463 3.35167 13.4093C3.45913 13.0862 3.6057 12.7663 3.78746 12.4581C3.96093 12.1644 4.16052 11.9123 4.38076 11.7093C4.58677 11.5193 4.84642 11.3639 5.15238 11.2473C5.43535 11.1394 5.75335 11.0804 6.09857 11.0715C6.14065 11.0931 6.21557 11.1342 6.33695 11.2104C6.58394 11.3654 6.86863 11.5422 7.18334 11.7358C7.53811 11.9536 7.99517 12.1503 8.54123 12.3201C9.09949 12.4939 9.66886 12.5822 10.234 12.5822C10.7992 12.5822 11.3687 12.4939 11.9266 12.3203C12.4732 12.1502 12.9301 11.9536 13.2853 11.7355C13.6074 11.5373 13.8841 11.3655 14.1311 11.2104C14.2524 11.1343 14.3274 11.0931 14.3695 11.0715C14.7148 11.0804 15.0328 11.1394 15.3159 11.2473C15.6218 11.3639 15.8814 11.5195 16.0874 11.7093C16.3077 11.9122 16.5072 12.1642 16.6807 12.4582C16.8626 12.7663 17.0094 13.0864 17.1167 13.4092C17.2288 13.7466 17.3231 14.1187 17.397 14.515C17.4717 14.9173 17.5224 15.2954 17.5471 15.6388V15.6391C17.5726 15.9885 17.5855 16.3536 17.5856 16.7246C17.5855 17.436 17.3768 17.9732 16.9474 18.3666Z" fill="black"/>
</g>
<defs>
<clipPath id="clip0_241_61">
<rect width="20.5023" height="19.7437" fill="white" transform="translate(0 0.376328)"/>
</clipPath>
</defs>
</svg>
