<svg width="40" height="41" viewBox="0 0 40 41" fill="none" xmlns="http://www.w3.org/2000/svg">
<path d="M37.59 6.47341C36.4893 4.66046 35.0163 3.18181 33.2993 2.16634C31.5823 1.15087 29.6734 0.629394 27.739 0.647368C26.2378 0.614561 24.7474 0.944717 23.3663 1.61608C21.9851 2.28744 20.7445 3.28476 19.7262 4.54231C18.7067 3.28641 17.4658 2.2902 16.0849 1.61897C14.7041 0.947738 13.2143 0.616638 11.7133 0.647368C9.77889 0.629394 7.87001 1.15087 6.153 2.16634C4.43599 3.18181 2.96297 4.66046 1.86232 6.47341C0.739975 8.50589 0.102002 10.8367 0.0113455 13.236C-0.0793108 15.6352 0.380482 18.0199 1.34536 20.1548C2.80953 23.9016 4.84141 27.3252 7.34784 30.2686C10.1861 33.6618 13.2913 36.7514 16.6244 39.4986C17.5264 40.2438 18.612 40.6451 19.7262 40.6451C20.8403 40.6451 21.9259 40.2438 22.8279 39.4986C26.1618 36.7525 29.2671 33.6628 32.1045 30.2686C34.6109 27.3252 36.6428 23.9016 38.1069 20.1548C39.0718 18.0199 39.5316 15.6352 39.441 13.236C39.3503 10.8367 38.7123 8.50589 37.59 6.47341ZM35.6945 19.0092C34.3339 22.4232 32.4686 25.5453 30.1802 28.2393C27.4529 31.4856 24.473 34.4434 21.277 37.0765C20.8296 37.4589 20.2854 37.6657 19.7262 37.6657C19.1669 37.6657 18.6227 37.4589 18.1753 37.0765C14.9801 34.4423 12.0003 31.4845 9.27208 28.2393C6.9723 25.5558 5.10565 22.4313 3.75784 19.0092C2.97564 17.3189 2.59096 15.4266 2.64129 13.5165C2.69163 11.6064 3.17525 9.7437 4.04504 8.10994C4.90914 6.71316 6.05919 5.57769 7.39544 4.80201C8.7317 4.02632 10.2138 3.63383 11.7133 3.65858C12.9332 3.61192 14.1465 3.88239 15.2612 4.44948C16.3758 5.01657 17.3625 5.86541 18.1466 6.93164C18.5795 7.40378 19.1556 7.66731 19.7549 7.66731C20.3541 7.66731 20.9302 7.40378 21.3632 6.93164C22.1412 5.87424 23.1186 5.0307 24.2226 4.46396C25.3266 3.89722 26.5286 3.62191 27.739 3.65858C29.2385 3.63383 30.7206 4.02632 32.0569 4.80201C33.3931 5.57769 34.5432 6.71316 35.4073 8.10994C36.2771 9.7437 36.7607 11.6064 36.811 13.5165C36.8613 15.4266 36.4767 17.3189 35.6945 19.0092Z" fill="black"/>
</svg>
